<svg width="100" height="100" viewBox="0 0 100 100" xmlns="http://www.w3.org/2000/svg" stroke-linecap="round" stroke-linejoin="round"><path d="M 72.17298259607986 52.30535726032461 L 30.330293803391044 52.30535726032461 L 41.15026739694042 40.06530991139903 L 56.610357938849745 33.0223793883727 L 63.804444837541894 39.032468312870606 L 72.17298259607986 52.30535726032461" fill="#ffffff" stroke="#ffffff" stroke-width="0.8" stroke-dasharray="0,0"></path><path d="M 41.2326449161284 41.40300614758735 A 10.90235111273745 10.90235111273745 0 1 1 41.2326394649533 41.392103798291664" stroke="#ffffff" fill="#ffffff" stroke-width="0.8" stroke-dasharray="0,0"></path><path d="M 57.61248423711247 28.271707046515058 A 12.906043878415105 12.906043878415105 0 1 1 57.61247778409107 28.258801004787642" stroke="#ffffff" fill="#ffffff" stroke-width="0.8" stroke-dasharray="0,0"></path><path d="M 71.11515656662375 31.721756583789126 A 7.3107117290818655 7.3107117290818655 0 1 1 71.1151529112682 31.714445873278493" stroke="#ffffff" fill="#ffffff" stroke-width="0.8" stroke-dasharray="0,0"></path><path d="M 81.05086342902638 43.427476427378 A 8.877880832946737 8.877880832946737 0 1 1 81.05085899008633 43.41859854802469" stroke="#ffffff" fill="#ffffff" stroke-width="0.8" stroke-dasharray="0,0"></path><path d="M 28.713208295166908 60.79669689494891 L 23.615542887246463 65.89436230286816" fill="none" stroke="#459ef2" stroke-width="4.8" stroke-dasharray="0,0"></path><path d="M 47.603452132838754 65.63418497070215 L 42.5057867249194 70.73185037862197" fill="none" stroke="#459ef2" stroke-width="4.8" stroke-dasharray="0,0"></path><path d="M 78.15516643070231 60.976836965671616 L 73.05750102278142 66.0745023735911" fill="none" stroke="#459ef2" stroke-width="4.8" stroke-dasharray="0,0"></path><path d="M 50.08585315778595 82.1477306017905 L 44.98818774986552 87.24539600971013" fill="none" stroke="#459ef2" stroke-width="4.8" stroke-dasharray="0,0"></path><path d="M 33.76554424321347 77.38913392059237 A 1.8921504252652699 1.8921504252652699 360 1 1 33.765543297138336 77.38724177048246" stroke="#ffffff" fill="none" stroke-width="1.05" stroke-dasharray="0,0"></path><path d="M 31.873393817948283 79.28128434585813 L 31.873393817948283 81.4772561843248 L 31.873393817948283 84.3123141526604" fill="none" stroke="#ffffff" stroke-width="1.05" stroke-dasharray="0,0"></path><path d="M 31.873393817948283 81.4772561843248 L 33.870465038737734 83.47432740511351" fill="none" stroke="#ffffff" stroke-width="1.05" stroke-dasharray="0,0"></path><path d="M 31.873393817948283 81.4772561843248 L 29.876322597160026 83.47432740511351" fill="none" stroke="#ffffff" stroke-width="1.05" stroke-dasharray="0,0"></path><path d="M 33.51204415400946 78.3352091332248 L 35.41381155211786 79.43319505245825 L 37.86904377389794 80.8507240366265" fill="none" stroke="#ffffff" stroke-width="1.05" stroke-dasharray="0,0"></path><path d="M 35.41381155211786 79.43319505245825 L 38.14186157288225 78.70221625248371" fill="none" stroke="#ffffff" stroke-width="1.05" stroke-dasharray="0,0"></path><path d="M 35.41381155211786 79.43319505245825 L 36.14479035209308 82.1612450732224" fill="none" stroke="#ffffff" stroke-width="1.05" stroke-dasharray="0,0"></path><path d="M 33.51204415400946 76.44305870795995 L 35.41381155211786 75.34507278872672 L 37.86904377389794 73.92754380455847" fill="none" stroke="#ffffff" stroke-width="1.05" stroke-dasharray="0,0"></path><path d="M 35.41381155211786 75.34507278872672 L 36.14479035209308 72.61702276796257" fill="none" stroke="#ffffff" stroke-width="1.05" stroke-dasharray="0,0"></path><path d="M 35.41381155211786 75.34507278872672 L 38.14186157288225 76.07605158870126" fill="none" stroke="#ffffff" stroke-width="1.05" stroke-dasharray="0,0"></path><path d="M 31.873393817948283 75.49698349532684 L 31.873393817948283 73.30101165686017 L 31.873393817948283 70.46595368852456" fill="none" stroke="#ffffff" stroke-width="1.05" stroke-dasharray="0,0"></path><path d="M 31.873393817948283 73.30101165686017 L 29.876322597160026 71.30394043607146" fill="none" stroke="#ffffff" stroke-width="1.05" stroke-dasharray="0,0"></path><path d="M 31.873393817948283 73.30101165686017 L 33.870465038737734 71.30394043607123" fill="none" stroke="#ffffff" stroke-width="1.05" stroke-dasharray="0,0"></path><path d="M 30.234743481886937 76.44305870796018 L 28.332976083779897 75.34507278872672 L 25.87774386199935 73.92754380455847" fill="none" stroke="#ffffff" stroke-width="1.05" stroke-dasharray="0,0"></path><path d="M 28.332976083779897 75.34507278872672 L 25.604926063015498 76.07605158870126" fill="none" stroke="#ffffff" stroke-width="1.05" stroke-dasharray="0,0"></path><path d="M 28.332976083779897 75.34507278872672 L 27.601997283803755 72.61702276796257" fill="none" stroke="#ffffff" stroke-width="1.05" stroke-dasharray="0,0"></path><path d="M 30.234743481886937 78.3352091332248 L 28.332976083779897 79.43319505245825 L 25.87774386199935 80.8507240366265" fill="none" stroke="#ffffff" stroke-width="1.05" stroke-dasharray="0,0"></path><path d="M 28.332976083779897 79.43319505245825 L 27.601997283803755 82.1612450732224" fill="none" stroke="#ffffff" stroke-width="1.05" stroke-dasharray="0,0"></path><path d="M 28.332976083779897 79.43319505245825 L 25.604926063015498 78.70221625248371" fill="none" stroke="#ffffff" stroke-width="1.05" stroke-dasharray="0,0"></path><path d="M 61.66786032624023 67.24602614787327 A 1.8921504252652699 1.8921504252652699 360 1 1 61.6678593801651 67.24413399776336" stroke="#ffffff" fill="none" stroke-width="1.05" stroke-dasharray="0,0"></path><path d="M 59.77570990097519 69.13817657313906 L 59.77570990097519 71.33414841160572 L 59.77570990097519 74.16920637994133" fill="none" stroke="#ffffff" stroke-width="1.05" stroke-dasharray="0,0"></path><path d="M 59.77570990097519 71.33414841160572 L 61.77278112176435 73.33121963239444" fill="none" stroke="#ffffff" stroke-width="1.05" stroke-dasharray="0,0"></path><path d="M 59.77570990097519 71.33414841160572 L 57.778638680186475 73.33121963239444" fill="none" stroke="#ffffff" stroke-width="1.05" stroke-dasharray="0,0"></path><path d="M 61.41436023703608 68.19210136050569 L 63.31612763514448 69.29008727973918 L 65.77135985692456 70.70761626390743" fill="none" stroke="#ffffff" stroke-width="1.05" stroke-dasharray="0,0"></path><path d="M 63.31612763514448 69.29008727973918 L 66.04417765590841 68.55910847976462" fill="none" stroke="#ffffff" stroke-width="1.05" stroke-dasharray="0,0"></path><path d="M 63.31612763514448 69.29008727973918 L 64.04710643511925 72.01813730050333" fill="none" stroke="#ffffff" stroke-width="1.05" stroke-dasharray="0,0"></path><path d="M 61.41436023703608 66.29995093524084 L 63.31612763514448 65.20196501600759 L 65.77135985692456 63.784436031839384" fill="none" stroke="#ffffff" stroke-width="1.05" stroke-dasharray="0,0"></path><path d="M 63.31612763514448 65.20196501600759 L 64.04710643511925 62.47391499524351" fill="none" stroke="#ffffff" stroke-width="1.05" stroke-dasharray="0,0"></path><path d="M 63.31612763514448 65.20196501600759 L 66.04417765590841 65.93294381598213" fill="none" stroke="#ffffff" stroke-width="1.05" stroke-dasharray="0,0"></path><path d="M 59.77570990097519 65.35387572260771 L 59.77570990097519 63.1579038841411 L 59.77570990097519 60.322845915805466" fill="none" stroke="#ffffff" stroke-width="1.05" stroke-dasharray="0,0"></path><path d="M 59.77570990097519 63.1579038841411 L 57.778638680186475 61.16083266335237" fill="none" stroke="#ffffff" stroke-width="1.05" stroke-dasharray="0,0"></path><path d="M 59.77570990097519 63.1579038841411 L 61.77278112176435 61.160832663352146" fill="none" stroke="#ffffff" stroke-width="1.05" stroke-dasharray="0,0"></path><path d="M 58.13705956491384 66.29995093524107 L 56.235292166806346 65.20196501600759 L 53.78005994502627 63.784436031839384" fill="none" stroke="#ffffff" stroke-width="1.05" stroke-dasharray="0,0"></path><path d="M 56.235292166806346 65.20196501600759 L 53.50724214604196 65.93294381598213" fill="none" stroke="#ffffff" stroke-width="1.05" stroke-dasharray="0,0"></path><path d="M 56.235292166806346 65.20196501600759 L 55.50431336683022 62.47391499524351" fill="none" stroke="#ffffff" stroke-width="1.05" stroke-dasharray="0,0"></path><path d="M 58.13705956491384 68.19210136050569 L 56.235292166806346 69.29008727973918 L 53.78005994502627 70.70761626390743" fill="none" stroke="#ffffff" stroke-width="1.05" stroke-dasharray="0,0"></path><path d="M 56.235292166806346 69.29008727973918 L 55.50431336683022 72.01813730050333" fill="none" stroke="#ffffff" stroke-width="1.05" stroke-dasharray="0,0"></path><path d="M 56.235292166806346 69.29008727973918 L 53.50724214604196 68.55910847976462" fill="none" stroke="#ffffff" stroke-width="1.05" stroke-dasharray="0,0"></path><path d="M 76.34082244451693 80.03126546649833 A 1.8921504252652699 1.8921504252652699 360 1 1 76.3408214984418 80.02937331638842" stroke="#ffffff" fill="none" stroke-width="1.05" stroke-dasharray="0,0"></path><path d="M 74.44867201925189 81.9234158917642 L 74.44867201925189 84.11938773023087 L 74.44867201925189 86.95444569856647" fill="none" stroke="#ffffff" stroke-width="1.05" stroke-dasharray="0,0"></path><path d="M 74.44867201925189 84.11938773023087 L 76.44574324004105 86.11645895101958" fill="none" stroke="#ffffff" stroke-width="1.05" stroke-dasharray="0,0"></path><path d="M 74.44867201925189 84.11938773023087 L 72.45160079846318 86.11645895101958" fill="none" stroke="#ffffff" stroke-width="1.05" stroke-dasharray="0,0"></path><path d="M 76.08732235531278 80.97734067913075 L 77.98908975342118 82.07532659836431 L 80.44432197520126 83.49285558253257" fill="none" stroke="#ffffff" stroke-width="1.05" stroke-dasharray="0,0"></path><path d="M 77.98908975342118 82.07532659836431 L 80.71713977418511 81.34434779838978" fill="none" stroke="#ffffff" stroke-width="1.05" stroke-dasharray="0,0"></path><path d="M 77.98908975342118 82.07532659836431 L 78.72006855339595 84.80337661912847" fill="none" stroke="#ffffff" stroke-width="1.05" stroke-dasharray="0,0"></path><path d="M 76.08732235531278 79.0851902538659 L 77.98908975342118 77.98720433463268 L 80.44432197520126 76.56967535046442" fill="none" stroke="#ffffff" stroke-width="1.05" stroke-dasharray="0,0"></path><path d="M 77.98908975342118 77.98720433463268 L 78.72006855339595 75.25915431386852" fill="none" stroke="#ffffff" stroke-width="1.05" stroke-dasharray="0,0"></path><path d="M 77.98908975342118 77.98720433463268 L 80.71713977418511 78.71818313460722" fill="none" stroke="#ffffff" stroke-width="1.05" stroke-dasharray="0,0"></path><path d="M 74.44867201925189 78.1391150412328 L 74.44867201925189 75.94314320276612 L 74.44867201925189 73.10808523443063" fill="none" stroke="#ffffff" stroke-width="1.05" stroke-dasharray="0,0"></path><path d="M 74.44867201925189 75.94314320276612 L 72.45160079846318 73.94607198197752" fill="none" stroke="#ffffff" stroke-width="1.05" stroke-dasharray="0,0"></path><path d="M 74.44867201925189 75.94314320276612 L 76.44574324004105 73.9460719819773" fill="none" stroke="#ffffff" stroke-width="1.05" stroke-dasharray="0,0"></path><path d="M 72.81002168319054 79.08519025386613 L 70.90825428508305 77.98720433463268 L 68.45302206330297 76.56967535046442" fill="none" stroke="#ffffff" stroke-width="1.05" stroke-dasharray="0,0"></path><path d="M 70.90825428508305 77.98720433463268 L 68.18020426431866 78.71818313460722" fill="none" stroke="#ffffff" stroke-width="1.05" stroke-dasharray="0,0"></path><path d="M 70.90825428508305 77.98720433463268 L 70.17727548510692 75.25915431386852" fill="none" stroke="#ffffff" stroke-width="1.05" stroke-dasharray="0,0"></path><path d="M 72.81002168319054 80.97734067913075 L 70.90825428508305 82.07532659836431 L 68.45302206330297 83.49285558253257" fill="none" stroke="#ffffff" stroke-width="1.05" stroke-dasharray="0,0"></path><path d="M 70.90825428508305 82.07532659836431 L 70.17727548510692 84.80337661912847" fill="none" stroke="#ffffff" stroke-width="1.05" stroke-dasharray="0,0"></path><path d="M 70.90825428508305 82.07532659836431 L 68.18020426431866 81.34434779838978" fill="none" stroke="#ffffff" stroke-width="1.05" stroke-dasharray="0,0"></path></svg>