<svg width="100" height="100" viewBox="0 0 100 100" xmlns="http://www.w3.org/2000/svg" stroke-linecap="round" stroke-linejoin="round"><path d="M 79.64731542987849 30.843870749681177 A 12.894256298757485 12.894256298757485 0 1 1 79.64730898275087 30.830976495531456" stroke="#ec6e4c" fill="#ec6e4c" stroke-width="0" stroke-dasharray="0,0"></path><path d="M 72.1729825960793 52.305357260324364 L 30.33029380339042 52.305357260324364 L 41.15026739693997 40.065309911398835 L 56.61035793884935 33.02237938837251 L 63.80444483754127 39.03246831287036 L 72.1729825960793 52.305357260324364" fill="#ffffff" stroke="#ffffff" stroke-width="0.8" stroke-dasharray="0,0"></path><path d="M 41.23264491612844 41.4030061475871 A 10.90235111273745 10.90235111273745 0 1 1 41.232639464953344 41.392103798291416" stroke="#ffffff" fill="#ffffff" stroke-width="0.8" stroke-dasharray="0,0"></path><path d="M 57.612484237112184 28.271707046514774 A 12.906043878415105 12.906043878415105 0 1 1 57.612477784090785 28.258801004787358" stroke="#ffffff" fill="#ffffff" stroke-width="0.8" stroke-dasharray="0,0"></path><path d="M 71.11515656662324 31.721756583788842 A 7.3107117290818655 7.3107117290818655 0 1 1 71.11515291126769 31.71444587327821" stroke="#ffffff" fill="#ffffff" stroke-width="0.8" stroke-dasharray="0,0"></path><path d="M 81.05086342902578 43.427476427377805 A 8.877880832946737 8.877880832946737 0 1 1 81.05085899008573 43.4185985480245" stroke="#ffffff" fill="#ffffff" stroke-width="0.8" stroke-dasharray="0,0"></path><path d="M 27.768278725155255 68.85363373284285 L 22.670613317235066 73.95129914076239" fill="none" stroke="#459ef2" stroke-width="4.800000000000001" stroke-dasharray="0,0"></path><path d="M 48.423363832780694 60.175440803196146 L 43.325698424861116 65.27310621111565" fill="none" stroke="#459ef2" stroke-width="4.800000000000001" stroke-dasharray="0,0"></path><path d="M 77.3293866827658 68.36161643604855 L 72.23172127484492 73.45928184396809" fill="none" stroke="#459ef2" stroke-width="4.800000000000001" stroke-dasharray="0,0"></path><path d="M 57.25552396658554 73.77225715878546 L 52.157858558665055 78.86992256670499" fill="none" stroke="#459ef2" stroke-width="4.800000000000001" stroke-dasharray="0,0"></path><path d="M 38.724540546651156 77.15715491307361 L 33.626875138731634 82.25482032099313" fill="none" stroke="#459ef2" stroke-width="4.800000000000001" stroke-dasharray="0,0"></path></svg>