<svg width="100" height="100" viewBox="0 0 100 100" xmlns="http://www.w3.org/2000/svg" stroke-linecap="round" stroke-linejoin="round"><path d="M 72.17298259607924 52.305357260324634 L 30.33029380339059 52.305357260324634 L 41.15026739693968 40.06530991139905 L 56.610357938849006 33.022379388372634 L 63.804444837541155 39.03246831287063 L 72.17298259607924 52.305357260324634" fill="#ffffff" stroke="#ffffff" stroke-width="0.8" stroke-dasharray="0,0"></path><path d="M 41.23264491612805 41.40300614758737 A 10.90235111273745 10.90235111273745 0 1 1 41.23263946495295 41.392103798291686" stroke="#ffffff" fill="#ffffff" stroke-width="0.8" stroke-dasharray="0,0"></path><path d="M 57.61248423711159 28.271707046515004 A 12.906043878415105 12.906043878415105 0 1 1 57.61247778409019 28.25880100478759" stroke="#ffffff" fill="#ffffff" stroke-width="0.8" stroke-dasharray="0,0"></path><path d="M 71.11515656662301 31.721756583789062 A 7.3107117290818655 7.3107117290818655 0 1 1 71.11515291126746 31.71444587327843" stroke="#ffffff" fill="#ffffff" stroke-width="0.8" stroke-dasharray="0,0"></path><path d="M 81.05086342902592 43.42747642737802 A 8.877880832946737 8.877880832946737 0 1 1 81.05085899008587 43.41859854802471" stroke="#ffffff" fill="#ffffff" stroke-width="0.8" stroke-dasharray="0,0"></path><path d="M 27.76827872515453 68.85363373284306 L 22.670613317234555 73.95129914076239" fill="none" stroke="#459ef2" stroke-width="3" stroke-dasharray="0,0"></path><path d="M 48.42336383278035 60.17544080319636 L 43.325698424860775 65.2731062111159" fill="none" stroke="#459ef2" stroke-width="3" stroke-dasharray="0,0"></path><path d="M 77.3293866827658 68.36161643604876 L 72.23172127484486 73.45928184396809" fill="none" stroke="#459ef2" stroke-width="3" stroke-dasharray="0,0"></path><path d="M 57.2555239665852 73.77225715878564 L 52.15785855866477 78.86992256670521" fill="none" stroke="#459ef2" stroke-width="3" stroke-dasharray="0,0"></path><path d="M 38.72454054665042 77.15715491307361 L 33.62687513873078 82.25482032099319" fill="none" stroke="#459ef2" stroke-width="3" stroke-dasharray="0,0"></path></svg>