<svg width="100" height="100" viewBox="0 0 100 100" xmlns="http://www.w3.org/2000/svg" stroke-linecap="round" stroke-linejoin="round"><path d="M 79.64731542987843 30.843870749680832 A 12.894256298757485 12.894256298757485 0 1 1 79.64730898275081 30.83097649553111" stroke="#ec6e4c" fill="#48484a" stroke-width="0" stroke-dasharray="0,0"></path><path d="M 72.17298259607938 52.30535726032406 L 30.33029380339036 52.30535726032406 L 41.150267396939995 40.065309911398685 L 56.61035793884926 33.022379388372315 L 63.80444483754141 39.03246831287004 L 72.17298259607938 52.30535726032406" fill="#ffffff" stroke="#ffffff" stroke-width="0.8" stroke-dasharray="0,0"></path><path d="M 41.23264491612828 41.40300614758678 A 10.90235111273745 10.90235111273745 0 1 1 41.23263946495318 41.392103798291096" stroke="#ffffff" fill="#ffffff" stroke-width="0.8" stroke-dasharray="0,0"></path><path d="M 57.61248423711214 28.271707046514507 A 12.906043878415105 12.906043878415105 0 1 1 57.61247778409074 28.25880100478709" stroke="#ffffff" fill="#ffffff" stroke-width="0.8" stroke-dasharray="0,0"></path><path d="M 71.11515656662327 31.721756583788533 A 7.3107117290818655 7.3107117290818655 0 1 1 71.11515291126771 31.7144458732779" stroke="#ffffff" fill="#ffffff" stroke-width="0.8" stroke-dasharray="0,0"></path><path d="M 81.05086342902587 43.427476427377655 A 8.877880832946737 8.877880832946737 0 1 1 81.05085899008581 43.41859854802435" stroke="#ffffff" fill="#ffffff" stroke-width="0.8" stroke-dasharray="0,0"></path><path d="M 27.7682787251552 68.8536337328427 L 22.67061331723471 73.95129914076222" fill="none" stroke="#459ef2" stroke-width="4.800000000000001" stroke-dasharray="0,0"></path><path d="M 48.423363832780666 60.17544080319601 L 43.325698424861145 65.27310621111553" fill="none" stroke="#459ef2" stroke-width="4.800000000000001" stroke-dasharray="0,0"></path><path d="M 77.32938668276583 68.3616164360484 L 72.231721274845 73.45928184396791" fill="none" stroke="#459ef2" stroke-width="4.800000000000001" stroke-dasharray="0,0"></path><path d="M 57.25552396658546 73.77225715878524 L 52.157858558665026 78.86992256670476" fill="none" stroke="#459ef2" stroke-width="4.800000000000001" stroke-dasharray="0,0"></path><path d="M 38.724540546651184 77.15715491307344 L 33.62687513873166 82.25482032099296" fill="none" stroke="#459ef2" stroke-width="4.800000000000001" stroke-dasharray="0,0"></path></svg>