<svg width="100" height="100" viewBox="0 0 100 100" xmlns="http://www.w3.org/2000/svg" stroke-linecap="round" stroke-linejoin="round"><path d="M 85.41116026912584 56.52000381226853 L 33.10779927826576 56.52000381226853 L 46.63276627020247 41.21994462611164 L 65.95787944758865 32.41628147232872 L 74.95048807095401 39.92889262795106 L 85.41116026912584 56.52000381226853" fill="#48484a" stroke="#48484a" stroke-width="1" stroke-dasharray="0,0"></path><path d="M 46.73573816918745 42.892064921346986 A 13.627938890921813 13.627938890921813 0 1 1 46.735731355218576 42.87843698472738" stroke="#48484a" fill="#48484a" stroke-width="1" stroke-dasharray="0,0"></path><path d="M 67.21053732041747 26.477941045006535 A 16.13255484801888 16.13255484801888 0 1 1 67.21052925414071 26.461808492847265" stroke="#48484a" fill="#48484a" stroke-width="1" stroke-dasharray="0,0"></path><path d="M 84.0888777323064 30.790502966599096 A 9.138389661352331 9.138389661352331 0 1 1 84.08887316311194 30.781364578460803" stroke="#48484a" fill="#48484a" stroke-width="1" stroke-dasharray="0,0"></path><path d="M 96.50851131030969 45.42265277108535 A 11.09735104118342 11.09735104118342 0 1 1 96.50850576163464 45.41155542189372" stroke="#48484a" fill="#48484a" stroke-width="1" stroke-dasharray="0,0"></path><path d="M 69.42278857147573 66.67206099652239 L 17.119427580614484 66.67206099652239 L 30.644394572550993 51.372001810365504 L 49.96950774993917 42.56833865658254 L 58.96211637330373 50.08094981220492 L 69.42278857147573 66.67206099652239" fill="#ffffff" stroke="#ffffff" stroke-width="1" stroke-dasharray="0,0"></path><path d="M 30.74736647153641 53.044122105600835 A 13.627938890921813 13.627938890921813 0 1 1 30.747359657567536 53.03049416898123" stroke="#ffffff" fill="#ffffff" stroke-width="1" stroke-dasharray="0,0"></path><path d="M 51.222165622766866 36.62999822926041 A 16.13255484801888 16.13255484801888 0 1 1 51.22215755649012 36.61386567710114" stroke="#ffffff" fill="#ffffff" stroke-width="1" stroke-dasharray="0,0"></path><path d="M 68.1005060346557 40.94256015085293 A 9.138389661352331 9.138389661352331 0 1 1 68.10050146546124 40.93342176271464" stroke="#ffffff" fill="#ffffff" stroke-width="1" stroke-dasharray="0,0"></path><path d="M 80.52013961265949 55.5747099553392 A 11.09735104118342 11.09735104118342 0 1 1 80.52013406398444 55.56361260614757" stroke="#ffffff" fill="#ffffff" stroke-width="1" stroke-dasharray="0,0"></path><path d="M 29.83672978741521 57.62475604822484 L 21.9731120152815 73.60771899971508 L 27.53518312240027 73.60771899971508 L 21.589520904445223 89.6546138030127 L 39.746166817339656 68.36530715162654 L 32.90545867410043 68.36530715162654 L 38.85112089205592 57.62475604822484 L 29.83672978741521 57.62475604822484" fill="#ec6e4c" stroke="#000000" stroke-width="0" stroke-dasharray="0,0"></path><path d="M 75.13930220323813 74.38313836978949 A 3.243686443311891 3.243686443311891 0 1 1 75.13930058139505 74.37989468388679" stroke="#ffffff" fill="#ffffff" stroke-width="1.26" stroke-dasharray="0,0"></path><path d="M 15.619840258282135 75.88062647042273 A 3.243686443311891 3.243686443311891 0 1 1 15.619838636439049 75.87738278452002" stroke="#ffffff" fill="#ffffff" stroke-width="1.26" stroke-dasharray="0,0"></path><path d="M 47.39571404801367 82.76475927928789 A 3.2436864433118444 3.2436864433118444 540 1 1 47.395715669856756 82.76800296519059" stroke="#ffffff" fill="#ffffff" stroke-width="1.26" stroke-dasharray="0,0"></path></svg>