<svg width="100" height="100" viewBox="0 0 100 100" xmlns="http://www.w3.org/2000/svg" stroke-linecap="round" stroke-linejoin="round"><path d="M 72.17298259607878 52.30535726032462 L 30.33029380339076 52.30535726032462 L 41.15026739693974 40.065309911399034 L 56.61035793884889 33.022379388372705 L 63.804444837540586 39.03246831287061 L 72.17298259607878 52.30535726032462" fill="#ffffff" stroke="#ffffff" stroke-width="0.8" stroke-dasharray="0,0"></path><path d="M 41.23264491612819 41.403006147587355 A 10.90235111273745 10.90235111273745 0 1 1 41.23263946495309 41.39210379829167" stroke="#ffffff" fill="#ffffff" stroke-width="0.8" stroke-dasharray="0,0"></path><path d="M 57.6124842371119 28.271707046515058 A 12.906043878415105 12.906043878415105 0 1 1 57.6124777840905 28.258801004787642" stroke="#ffffff" fill="#ffffff" stroke-width="0.8" stroke-dasharray="0,0"></path><path d="M 71.11515656662279 31.721756583789126 A 7.3107117290818655 7.3107117290818655 0 1 1 71.11515291126723 31.714445873278493" stroke="#ffffff" fill="#ffffff" stroke-width="0.8" stroke-dasharray="0,0"></path><path d="M 81.05086342902541 43.427476427378004 A 8.877880832946737 8.877880832946737 0 1 1 81.05085899008536 43.4185985480247" stroke="#ffffff" fill="#ffffff" stroke-width="0.8" stroke-dasharray="0,0"></path><path d="M 47.79109356719516 77.7429029559608 L 42.69342815927473 82.8405683638801" fill="none" stroke="#459ef2" stroke-width="4.8" stroke-dasharray="0,0"></path><path d="M 51.81636172640469 60.817402434010596 L 46.718696318485286 65.9150678419303" fill="none" stroke="#459ef2" stroke-width="4.8" stroke-dasharray="0,0"></path><path d="M 60.68661593593083 73.04427284512582 L 55.5889505280104 78.14193825304523" fill="none" stroke="#459ef2" stroke-width="4.8" stroke-dasharray="0,0"></path><path d="M 73.56144865830967 66.02377826676071 A 1.8921504252652699 1.8921504252652699 360 1 1 73.56144771223454 66.0218861166508" stroke="#ffffff" fill="none" stroke-width="1.05" stroke-dasharray="0,0"></path><path d="M 71.66929823304463 67.91592869202648 L 71.66929823304463 70.1119005304932 L 71.66929823304463 72.94695849882879" fill="none" stroke="#ffffff" stroke-width="1.05" stroke-dasharray="0,0"></path><path d="M 71.66929823304463 70.1119005304932 L 73.6663694538338 72.1089717512819" fill="none" stroke="#ffffff" stroke-width="1.05" stroke-dasharray="0,0"></path><path d="M 71.66929823304463 70.1119005304932 L 69.67222701225637 72.1089717512819" fill="none" stroke="#ffffff" stroke-width="1.05" stroke-dasharray="0,0"></path><path d="M 73.30794856910552 66.96985347939315 L 75.20971596721392 68.0678393986266 L 77.664948188994 69.4853683827949" fill="none" stroke="#ffffff" stroke-width="1.05" stroke-dasharray="0,0"></path><path d="M 75.20971596721392 68.0678393986266 L 77.93776598797831 67.33686059865207" fill="none" stroke="#ffffff" stroke-width="1.05" stroke-dasharray="0,0"></path><path d="M 75.20971596721392 68.0678393986266 L 75.94069476718914 70.79588941939079" fill="none" stroke="#ffffff" stroke-width="1.05" stroke-dasharray="0,0"></path><path d="M 73.30794856910552 65.07770305412828 L 75.20971596721392 63.97971713489508 L 77.664948188994 62.56218815072687" fill="none" stroke="#ffffff" stroke-width="1.05" stroke-dasharray="0,0"></path><path d="M 75.20971596721392 63.97971713489508 L 75.94069476718914 61.25166711413096" fill="none" stroke="#ffffff" stroke-width="1.05" stroke-dasharray="0,0"></path><path d="M 75.20971596721392 63.97971713489508 L 77.93776598797831 64.71069593486959" fill="none" stroke="#ffffff" stroke-width="1.05" stroke-dasharray="0,0"></path><path d="M 71.66929823304463 64.13162784149519 L 71.66929823304463 61.935656003028576 L 71.66929823304463 59.10059803469294" fill="none" stroke="#ffffff" stroke-width="1.05" stroke-dasharray="0,0"></path><path d="M 71.66929823304463 61.935656003028576 L 69.67222701225637 59.938584782239836" fill="none" stroke="#ffffff" stroke-width="1.05" stroke-dasharray="0,0"></path><path d="M 71.66929823304463 61.935656003028576 L 73.6663694538338 59.93858478223961" fill="none" stroke="#ffffff" stroke-width="1.05" stroke-dasharray="0,0"></path><path d="M 70.03064789698328 65.0777030541285 L 68.12888049887624 63.97971713489508 L 65.67364827709594 62.56218815072687" fill="none" stroke="#ffffff" stroke-width="1.05" stroke-dasharray="0,0"></path><path d="M 68.12888049887624 63.97971713489508 L 65.40083047811208 64.71069593486959" fill="none" stroke="#ffffff" stroke-width="1.05" stroke-dasharray="0,0"></path><path d="M 68.12888049887624 63.97971713489508 L 67.39790169890011 61.25166711413096" fill="none" stroke="#ffffff" stroke-width="1.05" stroke-dasharray="0,0"></path><path d="M 70.03064789698328 66.96985347939315 L 68.12888049887624 68.0678393986266 L 65.67364827709594 69.4853683827949" fill="none" stroke="#ffffff" stroke-width="1.05" stroke-dasharray="0,0"></path><path d="M 68.12888049887624 68.0678393986266 L 67.39790169890011 70.79588941939079" fill="none" stroke="#ffffff" stroke-width="1.05" stroke-dasharray="0,0"></path><path d="M 68.12888049887624 68.0678393986266 L 65.40083047811208 67.33686059865207" fill="none" stroke="#ffffff" stroke-width="1.05" stroke-dasharray="0,0"></path><path d="M 33.889073583894145 71.0531282300779 A 1.8921504252652699 1.8921504252652699 360 1 1 33.88907263781901 71.05123607996799" stroke="#ffffff" fill="none" stroke-width="1.05" stroke-dasharray="0,0"></path><path d="M 31.996923158629215 72.94527865534388 L 31.996923158629215 75.14125049381056 L 31.996923158629215 77.97630846214594" fill="none" stroke="#ffffff" stroke-width="1.05" stroke-dasharray="0,0"></path><path d="M 31.996923158629215 75.14125049381056 L 33.993994379418154 77.13832171459904" fill="none" stroke="#ffffff" stroke-width="1.05" stroke-dasharray="0,0"></path><path d="M 31.996923158629215 75.14125049381056 L 29.99985193784096 77.13832171459904" fill="none" stroke="#ffffff" stroke-width="1.05" stroke-dasharray="0,0"></path><path d="M 33.63557349468988 71.99920344271055 L 35.537340892798284 73.09718936194378 L 37.99257311457836 74.51471834611226" fill="none" stroke="#ffffff" stroke-width="1.05" stroke-dasharray="0,0"></path><path d="M 35.537340892798284 73.09718936194378 L 38.26539091356267 72.36621056196992" fill="none" stroke="#ffffff" stroke-width="1.05" stroke-dasharray="0,0"></path><path d="M 35.537340892798284 73.09718936194378 L 36.2683196927735 75.82523938270793" fill="none" stroke="#ffffff" stroke-width="1.05" stroke-dasharray="0,0"></path><path d="M 33.63557349468988 70.10705301744572 L 35.537340892798284 69.00906709821227 L 37.99257311457836 67.59153811404397" fill="none" stroke="#ffffff" stroke-width="1.05" stroke-dasharray="0,0"></path><path d="M 35.537340892798284 69.00906709821227 L 36.2683196927735 66.28101707744807" fill="none" stroke="#ffffff" stroke-width="1.05" stroke-dasharray="0,0"></path><path d="M 35.537340892798284 69.00906709821227 L 38.26539091356267 69.7400458981868" fill="none" stroke="#ffffff" stroke-width="1.05" stroke-dasharray="0,0"></path><path d="M 31.996923158629215 69.16097780481239 L 31.996923158629215 66.96500596634567 L 31.996923158629215 64.12994799801005" fill="none" stroke="#ffffff" stroke-width="1.05" stroke-dasharray="0,0"></path><path d="M 31.996923158629215 66.96500596634567 L 29.99985193784096 64.96793474555693" fill="none" stroke="#ffffff" stroke-width="1.05" stroke-dasharray="0,0"></path><path d="M 31.996923158629215 66.96500596634567 L 33.993994379418154 64.96793474555693" fill="none" stroke="#ffffff" stroke-width="1.05" stroke-dasharray="0,0"></path><path d="M 30.35827282256787 70.10705301744572 L 28.45650542446083 69.00906709821227 L 26.00127320268031 67.59153811404397" fill="none" stroke="#ffffff" stroke-width="1.05" stroke-dasharray="0,0"></path><path d="M 28.45650542446083 69.00906709821227 L 25.728455403696458 69.7400458981868" fill="none" stroke="#ffffff" stroke-width="1.05" stroke-dasharray="0,0"></path><path d="M 28.45650542446083 69.00906709821227 L 27.725526624484715 66.28101707744807" fill="none" stroke="#ffffff" stroke-width="1.05" stroke-dasharray="0,0"></path><path d="M 30.35827282256787 71.99920344271032 L 28.45650542446083 73.09718936194378 L 26.00127320268031 74.51471834611226" fill="none" stroke="#ffffff" stroke-width="1.05" stroke-dasharray="0,0"></path><path d="M 28.45650542446083 73.09718936194378 L 27.725526624484715 75.82523938270793" fill="none" stroke="#ffffff" stroke-width="1.05" stroke-dasharray="0,0"></path><path d="M 28.45650542446083 73.09718936194378 L 25.728455403696458 72.36621056197106" fill="none" stroke="#ffffff" stroke-width="1.05" stroke-dasharray="0,0"></path></svg>