<svg width="100" height="100" viewBox="0 0 100 100" xmlns="http://www.w3.org/2000/svg" stroke-linecap="round" stroke-linejoin="round"><path d="M 79.64731542987863 30.843870749680832 A 12.894256298757485 12.894256298757485 0 1 1 79.64730898275101 30.83097649553111" stroke="#ec6e4c" fill="#48484a" stroke-width="0" stroke-dasharray="0,0"></path><path d="M 72.17298259607975 52.30535726032406 L 30.330293803390873 52.30535726032406 L 41.15026739694042 40.065309911398685 L 56.61035793884969 33.022379388372315 L 63.80444483754178 39.03246831287004 L 72.17298259607975 52.30535726032406" fill="#ffffff" stroke="#ffffff" stroke-width="0.8" stroke-dasharray="0,0"></path><path d="M 41.23264491612877 41.40300614758678 A 10.90235111273745 10.90235111273745 0 1 1 41.23263946495367 41.392103798291096" stroke="#ffffff" fill="#ffffff" stroke-width="0.8" stroke-dasharray="0,0"></path><path d="M 57.61248423711258 28.271707046514507 A 12.906043878415105 12.906043878415105 0 1 1 57.61247778409118 28.25880100478709" stroke="#ffffff" fill="#ffffff" stroke-width="0.8" stroke-dasharray="0,0"></path><path d="M 71.11515656662367 31.721756583788533 A 7.3107117290818655 7.3107117290818655 0 1 1 71.11515291126811 31.7144458732779" stroke="#ffffff" fill="#ffffff" stroke-width="0.8" stroke-dasharray="0,0"></path><path d="M 81.05086342902604 43.427476427377655 A 8.877880832946737 8.877880832946737 0 1 1 81.05085899008598 43.41859854802435" stroke="#ffffff" fill="#ffffff" stroke-width="0.8" stroke-dasharray="0,0"></path><path d="M 52.70307203609336 69.99999999999966 A 2.7030720360932428 2.7030720360932428 0 1 1 52.70307068455745 69.99729692841407" stroke="#ffffff" fill="none" stroke-width="1.05" stroke-dasharray="0,0"></path><path d="M 50.00000000000057 67.29692796390589 L 50.00000000000057 64.15982533752492 L 50.00000000000057 60.10974252561675" fill="none" stroke="#ffffff" stroke-width="1.05" stroke-dasharray="0,0"></path><path d="M 50.00000000000057 64.15982533752492 L 52.852958886841975 61.30686645068374" fill="none" stroke="#ffffff" stroke-width="1.05" stroke-dasharray="0,0"></path><path d="M 50.00000000000057 64.15982533752492 L 47.14704111316007 61.30686645068374" fill="none" stroke="#ffffff" stroke-width="1.05" stroke-dasharray="0,0"></path><path d="M 52.34092905151613 68.64846398195334 L 55.05773962024216 67.07991266876286 L 58.56521422278513 65.0548712628082" fill="none" stroke="#ffffff" stroke-width="1.05" stroke-dasharray="0,0"></path><path d="M 55.05773962024216 67.07991266876286 L 58.95495393561998 68.12416809729791" fill="none" stroke="#ffffff" stroke-width="1.05" stroke-dasharray="0,0"></path><path d="M 55.05773962024216 67.07991266876286 L 56.101995048778576 63.18269835338549" fill="none" stroke="#ffffff" stroke-width="1.05" stroke-dasharray="0,0"></path><path d="M 52.34092905151613 71.35153601804598 L 55.05773962024216 72.92008733123646 L 58.56521422278513 74.94512873719111" fill="none" stroke="#ffffff" stroke-width="1.05" stroke-dasharray="0,0"></path><path d="M 55.05773962024216 72.92008733123646 L 56.101995048778576 76.81730164661383" fill="none" stroke="#ffffff" stroke-width="1.05" stroke-dasharray="0,0"></path><path d="M 55.05773962024216 72.92008733123646 L 58.95495393561998 71.8758319027014" fill="none" stroke="#ffffff" stroke-width="1.05" stroke-dasharray="0,0"></path><path d="M 50.00000000000057 72.70307203609343 L 50.00000000000057 75.8401746624744 L 50.00000000000057 79.89025747438257" fill="none" stroke="#ffffff" stroke-width="1.05" stroke-dasharray="0,0"></path><path d="M 50.00000000000057 75.8401746624744 L 47.14704111316007 78.69313354931558" fill="none" stroke="#ffffff" stroke-width="1.05" stroke-dasharray="0,0"></path><path d="M 50.00000000000057 75.8401746624744 L 52.852958886841975 78.69313354931558" fill="none" stroke="#ffffff" stroke-width="1.05" stroke-dasharray="0,0"></path><path d="M 47.6590709484841 71.35153601804598 L 44.94226037975989 72.92008733123646 L 41.434785777216916 74.94512873719111" fill="none" stroke="#ffffff" stroke-width="1.05" stroke-dasharray="0,0"></path><path d="M 44.94226037975989 72.92008733123646 L 41.04504606438206 71.8758319027014" fill="none" stroke="#ffffff" stroke-width="1.05" stroke-dasharray="0,0"></path><path d="M 44.94226037975989 72.92008733123646 L 43.89800495122256 76.81730164661383" fill="none" stroke="#ffffff" stroke-width="1.05" stroke-dasharray="0,0"></path><path d="M 47.6590709484841 68.64846398195334 L 44.94226037975989 67.07991266876286 L 41.434785777216916 65.0548712628082" fill="none" stroke="#ffffff" stroke-width="1.05" stroke-dasharray="0,0"></path><path d="M 44.94226037975989 67.07991266876286 L 43.89800495122256 63.18269835338549" fill="none" stroke="#ffffff" stroke-width="1.05" stroke-dasharray="0,0"></path><path d="M 44.94226037975989 67.07991266876286 L 41.04504606438206 68.12416809729791" fill="none" stroke="#ffffff" stroke-width="1.05" stroke-dasharray="0,0"></path></svg>