<svg width="100" height="100" viewBox="0 0 100 100" xmlns="http://www.w3.org/2000/svg" stroke-linecap="round" stroke-linejoin="round"><path d="M 72.17298259607924 52.30535726032464 L 30.330293803390873 52.30535726032464 L 41.15026739693997 40.065309911399055 L 56.61035793884923 33.022379388372656 L 63.804444837540814 39.032468312870634 L 72.17298259607924 52.30535726032464" fill="#ffffff" stroke="#ffffff" stroke-width="0.8" stroke-dasharray="0,0"></path><path d="M 41.232644916128315 41.40300614758738 A 10.90235111273745 10.90235111273745 0 1 1 41.232639464953216 41.39210379829169" stroke="#ffffff" fill="#ffffff" stroke-width="0.8" stroke-dasharray="0,0"></path><path d="M 57.61248423711213 28.271707046514994 A 12.906043878415105 12.906043878415105 0 1 1 57.61247778409073 28.25880100478758" stroke="#ffffff" fill="#ffffff" stroke-width="0.8" stroke-dasharray="0,0"></path><path d="M 71.11515656662318 31.721756583789066 A 7.3107117290818655 7.3107117290818655 0 1 1 71.11515291126763 31.714445873278432" stroke="#ffffff" fill="#ffffff" stroke-width="0.8" stroke-dasharray="0,0"></path><path d="M 81.05086342902572 43.427476427378025 A 8.877880832946737 8.877880832946737 0 1 1 81.05085899008567 43.41859854802472" stroke="#ffffff" fill="#ffffff" stroke-width="0.8" stroke-dasharray="0,0"></path><path d="M 36.704548934918535 68.85363373284305 L 31.606883526998104 73.95129914076237" fill="none" stroke="#459ef2" stroke-width="4.800000000000001" stroke-dasharray="0,0"></path><path d="M 57.35963404254346 60.175440803196366 L 52.26196863462394 65.27310621111585" fill="none" stroke="#459ef2" stroke-width="4.800000000000001" stroke-dasharray="0,0"></path><path d="M 68.39311647300201 72.26710945050336 L 63.29545106508158 77.36477485842265" fill="none" stroke="#459ef2" stroke-width="4.800000000000001" stroke-dasharray="0,0"></path></svg>