<svg width="100" height="100" viewBox="0 0 100 100" xmlns="http://www.w3.org/2000/svg" stroke-linecap="round" stroke-linejoin="round"><path d="M 79.64731542987847 30.843870749681177 A 12.894256298757485 12.894256298757485 0 1 1 79.64730898275087 30.830976495531456" stroke="#ec6e4c" fill="#ec6e4c" stroke-width="0" stroke-dasharray="0,0"></path><path d="M 72.17298259607963 52.30535726032436 L 30.330293803390646 52.30535726032436 L 41.150267396940194 40.06530991139883 L 56.61035793884952 33.0223793883725 L 63.804444837541666 39.03246831287035 L 72.17298259607963 52.30535726032436" fill="#ffffff" stroke="#ffffff" stroke-width="0.8" stroke-dasharray="0,0"></path><path d="M 41.23264491612849 41.40300614758709 A 10.90235111273745 10.90235111273745 0 1 1 41.232639464953394 41.39210379829141" stroke="#ffffff" fill="#ffffff" stroke-width="0.8" stroke-dasharray="0,0"></path><path d="M 57.61248423711238 28.271707046514774 A 12.906043878415105 12.906043878415105 0 1 1 57.612477784090984 28.258801004787358" stroke="#ffffff" fill="#ffffff" stroke-width="0.8" stroke-dasharray="0,0"></path><path d="M 71.11515656662353 31.721756583788842 A 7.3107117290818655 7.3107117290818655 0 1 1 71.11515291126797 31.71444587327821" stroke="#ffffff" fill="#ffffff" stroke-width="0.8" stroke-dasharray="0,0"></path><path d="M 81.0508634290259 43.4274764273778 A 8.877880832946737 8.877880832946737 0 1 1 81.05085899008586 43.41859854802449" stroke="#ffffff" fill="#ffffff" stroke-width="0.8" stroke-dasharray="0,0"></path><path d="M 52.70307203609316 70.00000000000001 A 2.7030720360932428 2.7030720360932428 0 1 1 52.703070684557254 69.99729692841443" stroke="#ffffff" fill="none" stroke-width="1.05" stroke-dasharray="0,0"></path><path d="M 50.0000000000004 67.2969279639062 L 50.0000000000004 64.15982533752522 L 50.0000000000004 60.10974252561705" fill="none" stroke="#ffffff" stroke-width="1.05" stroke-dasharray="0,0"></path><path d="M 50.0000000000004 64.15982533752522 L 52.852958886841805 61.30686645068406" fill="none" stroke="#ffffff" stroke-width="1.05" stroke-dasharray="0,0"></path><path d="M 50.0000000000004 64.15982533752522 L 47.147041113159844 61.30686645068406" fill="none" stroke="#ffffff" stroke-width="1.05" stroke-dasharray="0,0"></path><path d="M 52.34092905151596 68.64846398195367 L 55.05773962024199 67.07991266876317 L 58.56521422278496 65.05487126280849" fill="none" stroke="#ffffff" stroke-width="1.05" stroke-dasharray="0,0"></path><path d="M 55.05773962024199 67.07991266876317 L 58.95495393561981 68.12416809729822" fill="none" stroke="#ffffff" stroke-width="1.05" stroke-dasharray="0,0"></path><path d="M 55.05773962024199 67.07991266876317 L 56.101995048778406 63.18269835338584" fill="none" stroke="#ffffff" stroke-width="1.05" stroke-dasharray="0,0"></path><path d="M 52.34092905151596 71.35153601804632 L 55.05773962024199 72.9200873312368 L 58.56521422278496 74.94512873719145" fill="none" stroke="#ffffff" stroke-width="1.05" stroke-dasharray="0,0"></path><path d="M 55.05773962024199 72.9200873312368 L 56.101995048778406 76.81730164661417" fill="none" stroke="#ffffff" stroke-width="1.05" stroke-dasharray="0,0"></path><path d="M 55.05773962024199 72.9200873312368 L 58.95495393561981 71.87583190270175" fill="none" stroke="#ffffff" stroke-width="1.05" stroke-dasharray="0,0"></path><path d="M 50.0000000000004 72.70307203609377 L 50.0000000000004 75.84017466247474 L 50.0000000000004 79.8902574743829" fill="none" stroke="#ffffff" stroke-width="1.05" stroke-dasharray="0,0"></path><path d="M 50.0000000000004 75.84017466247474 L 47.147041113159844 78.69313354931592" fill="none" stroke="#ffffff" stroke-width="1.05" stroke-dasharray="0,0"></path><path d="M 50.0000000000004 75.84017466247474 L 52.852958886841805 78.69313354931592" fill="none" stroke="#ffffff" stroke-width="1.05" stroke-dasharray="0,0"></path><path d="M 47.65907094848387 71.35153601804632 L 44.94226037975966 72.9200873312368 L 41.43478577721669 74.94512873719145" fill="none" stroke="#ffffff" stroke-width="1.05" stroke-dasharray="0,0"></path><path d="M 44.94226037975966 72.9200873312368 L 41.045046064381836 71.87583190270175" fill="none" stroke="#ffffff" stroke-width="1.05" stroke-dasharray="0,0"></path><path d="M 44.94226037975966 72.9200873312368 L 43.89800495122233 76.81730164661417" fill="none" stroke="#ffffff" stroke-width="1.05" stroke-dasharray="0,0"></path><path d="M 47.65907094848387 68.64846398195367 L 44.94226037975966 67.07991266876317 L 41.43478577721669 65.05487126280849" fill="none" stroke="#ffffff" stroke-width="1.05" stroke-dasharray="0,0"></path><path d="M 44.94226037975966 67.07991266876317 L 43.89800495122233 63.18269835338584" fill="none" stroke="#ffffff" stroke-width="1.05" stroke-dasharray="0,0"></path><path d="M 44.94226037975966 67.07991266876317 L 41.045046064381836 68.12416809729822" fill="none" stroke="#ffffff" stroke-width="1.05" stroke-dasharray="0,0"></path></svg>