<svg width="100" height="100" viewBox="0 0 100 100" xmlns="http://www.w3.org/2000/svg" stroke-linecap="round" stroke-linejoin="round"><path d="M 79.64731542987877 30.843870749680832 A 12.894256298757485 12.894256298757485 0 1 1 79.64730898275116 30.83097649553111" stroke="#ec6e4c" fill="#48484a" stroke-width="0" stroke-dasharray="0,0"></path><path d="M 72.17298259608015 52.30535726032406 L 30.330293803391214 52.30535726032406 L 41.15026739694076 40.065309911398685 L 56.61035793885003 33.022379388372315 L 63.80444483754218 39.03246831287004 L 72.17298259608015 52.30535726032406" fill="#ffffff" stroke="#ffffff" stroke-width="0.8" stroke-dasharray="0,0"></path><path d="M 41.23264491612912 41.40300614758678 A 10.90235111273745 10.90235111273745 0 1 1 41.23263946495402 41.392103798291096" stroke="#ffffff" fill="#ffffff" stroke-width="0.8" stroke-dasharray="0,0"></path><path d="M 57.61248423711292 28.271707046514507 A 12.906043878415105 12.906043878415105 0 1 1 57.612477784091524 28.25880100478709" stroke="#ffffff" fill="#ffffff" stroke-width="0.8" stroke-dasharray="0,0"></path><path d="M 71.11515656662404 31.721756583788533 A 7.3107117290818655 7.3107117290818655 0 1 1 71.11515291126848 31.7144458732779" stroke="#ffffff" fill="#ffffff" stroke-width="0.8" stroke-dasharray="0,0"></path><path d="M 81.05086342902621 43.427476427377655 A 8.877880832946737 8.877880832946737 0 1 1 81.05085899008616 43.41859854802435" stroke="#ffffff" fill="#ffffff" stroke-width="0.8" stroke-dasharray="0,0"></path><path d="M 26.159870338684414 68.8536337328427 L 21.062204930763983 73.95129914076222" fill="none" stroke="#459ef2" stroke-width="4.800000000000001" stroke-dasharray="0,0"></path><path d="M 46.814955446309796 60.17544080319601 L 41.717290038390274 65.27310621111553" fill="none" stroke="#459ef2" stroke-width="4.800000000000001" stroke-dasharray="0,0"></path><path d="M 75.7209782962941 66.50699690507088 L 70.62331288837413 71.6046623129904" fill="none" stroke="#459ef2" stroke-width="4.800000000000001" stroke-dasharray="0,0"></path><path d="M 55.763029300800554 75.74279041044872 L 50.66536389288012 80.84045581836824" fill="none" stroke="#459ef2" stroke-width="4.800000000000001" stroke-dasharray="0,0"></path></svg>