<svg width="100" height="100" viewBox="0 0 100 100" xmlns="http://www.w3.org/2000/svg" stroke-linecap="round" stroke-linejoin="round"><path d="M 79.64731542987903 30.843870749681177 A 12.894256298757485 12.894256298757485 0 1 1 79.64730898275141 30.830976495531456" stroke="#ec6e4c" fill="#ec6e4c" stroke-width="0" stroke-dasharray="0,0"></path><path d="M 72.17298259608037 52.30535726032437 L 30.33029380339147 52.30535726032437 L 41.15026739694105 40.06530991139884 L 56.61035793885026 33.022379388372514 L 63.804444837542405 39.032468312870364 L 72.17298259608037 52.30535726032437" fill="#ffffff" stroke="#ffffff" stroke-width="0.8" stroke-dasharray="0,0"></path><path d="M 41.232644916129445 41.40300614758711 A 10.90235111273745 10.90235111273745 0 1 1 41.232639464954346 41.39210379829142" stroke="#ffffff" fill="#ffffff" stroke-width="0.8" stroke-dasharray="0,0"></path><path d="M 57.612484237113165 28.271707046514774 A 12.906043878415105 12.906043878415105 0 1 1 57.612477784091766 28.258801004787358" stroke="#ffffff" fill="#ffffff" stroke-width="0.8" stroke-dasharray="0,0"></path><path d="M 71.11515656662426 31.721756583788842 A 7.3107117290818655 7.3107117290818655 0 1 1 71.11515291126871 31.71444587327821" stroke="#ffffff" fill="#ffffff" stroke-width="0.8" stroke-dasharray="0,0"></path><path d="M 81.05086342902644 43.42747642737781 A 8.877880832946737 8.877880832946737 0 1 1 81.05085899008638 43.418598548024505" stroke="#ffffff" fill="#ffffff" stroke-width="0.8" stroke-dasharray="0,0"></path><path d="M 26.15987033868467 68.85363373284285 L 21.062204930764352 73.95129914076239" fill="none" stroke="#459ef2" stroke-width="4.800000000000001" stroke-dasharray="0,0"></path><path d="M 46.81495544631008 60.17544080319615 L 41.71729003839056 65.27310621111565" fill="none" stroke="#459ef2" stroke-width="4.800000000000001" stroke-dasharray="0,0"></path><path d="M 75.72097829629433 66.50699690507113 L 70.62331288837436 71.60466231299068" fill="none" stroke="#459ef2" stroke-width="4.800000000000001" stroke-dasharray="0,0"></path><path d="M 55.76302930080084 75.74279041044889 L 50.66536389288041 80.84045581836841" fill="none" stroke="#459ef2" stroke-width="4.800000000000001" stroke-dasharray="0,0"></path></svg>