<svg width="100" height="100" viewBox="0 0 100 100" xmlns="http://www.w3.org/2000/svg" stroke-linecap="round" stroke-linejoin="round"><path d="M 79.64731542987874 30.843870749680832 A 12.894256298757485 12.894256298757485 0 1 1 79.64730898275113 30.83097649553111" stroke="#ec6e4c" fill="#48484a" stroke-width="0" stroke-dasharray="0,0"></path><path d="M 72.17298259607986 52.30535726032406 L 30.330293803390816 52.30535726032406 L 41.15026739694042 40.065309911398685 L 56.61035793884986 33.022379388372315 L 63.80444483754201 39.03246831287004 L 72.17298259607986 52.30535726032406" fill="#ffffff" stroke="#ffffff" stroke-width="0.8" stroke-dasharray="0,0"></path><path d="M 41.23264491612876 41.40300614758678 A 10.90235111273745 10.90235111273745 0 1 1 41.232639464953664 41.392103798291096" stroke="#ffffff" fill="#ffffff" stroke-width="0.8" stroke-dasharray="0,0"></path><path d="M 57.61248423711264 28.271707046514507 A 12.906043878415105 12.906043878415105 0 1 1 57.61247778409124 28.25880100478709" stroke="#ffffff" fill="#ffffff" stroke-width="0.8" stroke-dasharray="0,0"></path><path d="M 71.11515656662381 31.721756583788533 A 7.3107117290818655 7.3107117290818655 0 1 1 71.11515291126825 31.7144458732779" stroke="#ffffff" fill="#ffffff" stroke-width="0.8" stroke-dasharray="0,0"></path><path d="M 81.05086342902621 43.427476427377655 A 8.877880832946737 8.877880832946737 0 1 1 81.05085899008616 43.41859854802435" stroke="#ffffff" fill="#ffffff" stroke-width="0.8" stroke-dasharray="0,0"></path><path d="M 37.70307203609333 69.99999999999966 A 2.7030720360932428 2.7030720360932428 0 1 1 37.703070684557424 69.99729692841407" stroke="#ffffff" fill="none" stroke-width="1.05" stroke-dasharray="0,0"></path><path d="M 35.00000000000051 67.29692796390589 L 35.00000000000051 64.15982533752492 L 35.00000000000051 60.10974252561675" fill="none" stroke="#ffffff" stroke-width="1.05" stroke-dasharray="0,0"></path><path d="M 35.00000000000051 64.15982533752492 L 37.852958886841975 61.30686645068374" fill="none" stroke="#ffffff" stroke-width="1.05" stroke-dasharray="0,0"></path><path d="M 35.00000000000051 64.15982533752492 L 32.147041113160014 61.30686645068374" fill="none" stroke="#ffffff" stroke-width="1.05" stroke-dasharray="0,0"></path><path d="M 37.34092905151613 68.64846398195334 L 40.05773962024216 67.07991266876286 L 43.565214222785244 65.0548712628082" fill="none" stroke="#ffffff" stroke-width="1.05" stroke-dasharray="0,0"></path><path d="M 40.05773962024216 67.07991266876286 L 43.9549539356201 68.12416809729791" fill="none" stroke="#ffffff" stroke-width="1.05" stroke-dasharray="0,0"></path><path d="M 40.05773962024216 67.07991266876286 L 41.101995048778576 63.18269835338549" fill="none" stroke="#ffffff" stroke-width="1.05" stroke-dasharray="0,0"></path><path d="M 37.34092905151613 71.35153601804598 L 40.05773962024216 72.92008733123646 L 43.565214222785244 74.94512873719111" fill="none" stroke="#ffffff" stroke-width="1.05" stroke-dasharray="0,0"></path><path d="M 40.05773962024216 72.92008733123646 L 41.101995048778576 76.81730164661383" fill="none" stroke="#ffffff" stroke-width="1.05" stroke-dasharray="0,0"></path><path d="M 40.05773962024216 72.92008733123646 L 43.9549539356201 71.8758319027014" fill="none" stroke="#ffffff" stroke-width="1.05" stroke-dasharray="0,0"></path><path d="M 35.00000000000051 72.70307203609343 L 35.00000000000051 75.8401746624744 L 35.00000000000051 79.89025747438257" fill="none" stroke="#ffffff" stroke-width="1.05" stroke-dasharray="0,0"></path><path d="M 35.00000000000051 75.8401746624744 L 32.147041113160014 78.69313354931558" fill="none" stroke="#ffffff" stroke-width="1.05" stroke-dasharray="0,0"></path><path d="M 35.00000000000051 75.8401746624744 L 37.852958886841975 78.69313354931558" fill="none" stroke="#ffffff" stroke-width="1.05" stroke-dasharray="0,0"></path><path d="M 32.65907094848404 71.35153601804598 L 29.94226037975983 72.92008733123646 L 26.43478577721686 74.94512873719111" fill="none" stroke="#ffffff" stroke-width="1.05" stroke-dasharray="0,0"></path><path d="M 29.94226037975983 72.92008733123646 L 26.045046064382007 71.8758319027014" fill="none" stroke="#ffffff" stroke-width="1.05" stroke-dasharray="0,0"></path><path d="M 29.94226037975983 72.92008733123646 L 28.898004951222504 76.81730164661383" fill="none" stroke="#ffffff" stroke-width="1.05" stroke-dasharray="0,0"></path><path d="M 32.65907094848404 68.64846398195334 L 29.94226037975983 67.07991266876286 L 26.43478577721686 65.0548712628082" fill="none" stroke="#ffffff" stroke-width="1.05" stroke-dasharray="0,0"></path><path d="M 29.94226037975983 67.07991266876286 L 28.898004951222504 63.18269835338549" fill="none" stroke="#ffffff" stroke-width="1.05" stroke-dasharray="0,0"></path><path d="M 29.94226037975983 67.07991266876286 L 26.045046064382007 68.12416809729791" fill="none" stroke="#ffffff" stroke-width="1.05" stroke-dasharray="0,0"></path><path d="M 62.29692796390704 69.99999999999966 A 2.7030720360932428 2.7030720360932428 540 1 1 62.296929315442945 70.00270307158524" stroke="#ffffff" fill="none" stroke-width="1.05" stroke-dasharray="0,0"></path><path d="M 64.99999999999983 67.29692796390589 L 64.99999999999983 64.15982533752492 L 64.99999999999983 60.10974252561675" fill="none" stroke="#ffffff" stroke-width="1.05" stroke-dasharray="0,0"></path><path d="M 64.99999999999983 64.15982533752492 L 62.14704111315842 61.30686645068374" fill="none" stroke="#ffffff" stroke-width="1.05" stroke-dasharray="0,0"></path><path d="M 64.99999999999983 64.15982533752492 L 67.85295888684124 61.30686645068374" fill="none" stroke="#ffffff" stroke-width="1.05" stroke-dasharray="0,0"></path><path d="M 62.65907094848427 68.64846398195334 L 59.94226037975824 67.07991266876286 L 56.43478577721527 65.0548712628082" fill="none" stroke="#ffffff" stroke-width="1.05" stroke-dasharray="0,0"></path><path d="M 59.94226037975824 67.07991266876286 L 56.045046064381324 68.12416809729791" fill="none" stroke="#ffffff" stroke-width="1.05" stroke-dasharray="0,0"></path><path d="M 59.94226037975824 67.07991266876286 L 58.89800495122273 63.18269835338549" fill="none" stroke="#ffffff" stroke-width="1.05" stroke-dasharray="0,0"></path><path d="M 62.65907094848427 71.35153601804598 L 59.94226037975824 72.92008733123646 L 56.43478577721527 74.94512873719111" fill="none" stroke="#ffffff" stroke-width="1.05" stroke-dasharray="0,0"></path><path d="M 59.94226037975824 72.92008733123646 L 58.89800495122273 76.81730164661383" fill="none" stroke="#ffffff" stroke-width="1.05" stroke-dasharray="0,0"></path><path d="M 59.94226037975824 72.92008733123646 L 56.045046064381324 71.8758319027014" fill="none" stroke="#ffffff" stroke-width="1.05" stroke-dasharray="0,0"></path><path d="M 64.99999999999983 72.70307203609343 L 64.99999999999983 75.8401746624744 L 64.99999999999983 79.89025747438257" fill="none" stroke="#ffffff" stroke-width="1.05" stroke-dasharray="0,0"></path><path d="M 64.99999999999983 75.8401746624744 L 67.85295888684124 78.69313354931558" fill="none" stroke="#ffffff" stroke-width="1.05" stroke-dasharray="0,0"></path><path d="M 64.99999999999983 75.8401746624744 L 62.14704111315842 78.69313354931558" fill="none" stroke="#ffffff" stroke-width="1.05" stroke-dasharray="0,0"></path><path d="M 67.3409290515163 71.35153601804598 L 70.0577396202413 72.92008733123646 L 73.56521422278428 74.94512873719111" fill="none" stroke="#ffffff" stroke-width="1.05" stroke-dasharray="0,0"></path><path d="M 70.0577396202413 72.92008733123646 L 73.95495393561822 71.8758319027014" fill="none" stroke="#ffffff" stroke-width="1.05" stroke-dasharray="0,0"></path><path d="M 70.0577396202413 72.92008733123646 L 71.10199504877863 76.81730164661383" fill="none" stroke="#ffffff" stroke-width="1.05" stroke-dasharray="0,0"></path><path d="M 67.3409290515163 68.64846398195334 L 70.0577396202413 67.07991266876286 L 73.56521422278428 65.0548712628082" fill="none" stroke="#ffffff" stroke-width="1.05" stroke-dasharray="0,0"></path><path d="M 70.0577396202413 67.07991266876286 L 71.10199504877863 63.18269835338549" fill="none" stroke="#ffffff" stroke-width="1.05" stroke-dasharray="0,0"></path><path d="M 70.0577396202413 67.07991266876286 L 73.95495393561822 68.12416809729791" fill="none" stroke="#ffffff" stroke-width="1.05" stroke-dasharray="0,0"></path></svg>