<svg width="100" height="100" viewBox="0 0 100 100" xmlns="http://www.w3.org/2000/svg" stroke-linecap="round" stroke-linejoin="round"><path d="M 79.64731542987846 30.843870749681177 A 12.894256298757485 12.894256298757485 0 1 1 79.64730898275084 30.830976495531456" stroke="#ec6e4c" fill="#ec6e4c" stroke-width="0" stroke-dasharray="0,0"></path><path d="M 72.17298259607955 52.30535726032436 L 30.330293803390788 52.30535726032436 L 41.150267396940336 40.06530991139883 L 56.61035793884949 33.0223793883725 L 63.80444483754164 39.03246831287035 L 72.17298259607955 52.30535726032436" fill="#ffffff" stroke="#ffffff" stroke-width="0.8" stroke-dasharray="0,0"></path><path d="M 41.2326449161285 41.40300614758709 A 10.90235111273745 10.90235111273745 0 1 1 41.2326394649534 41.39210379829141" stroke="#ffffff" fill="#ffffff" stroke-width="0.8" stroke-dasharray="0,0"></path><path d="M 57.61248423711244 28.271707046514774 A 12.906043878415105 12.906043878415105 0 1 1 57.61247778409104 28.258801004787358" stroke="#ffffff" fill="#ffffff" stroke-width="0.8" stroke-dasharray="0,0"></path><path d="M 71.1151565666235 31.721756583788842 A 7.3107117290818655 7.3107117290818655 0 1 1 71.11515291126794 31.71444587327821" stroke="#ffffff" fill="#ffffff" stroke-width="0.8" stroke-dasharray="0,0"></path><path d="M 81.0508634290259 43.4274764273778 A 8.877880832946737 8.877880832946737 0 1 1 81.05085899008584 43.41859854802449" stroke="#ffffff" fill="#ffffff" stroke-width="0.8" stroke-dasharray="0,0"></path><path d="M 37.70307203609305 70.00000000000001 A 2.7030720360932428 2.7030720360932428 0 1 1 37.70307068455714 69.99729692841443" stroke="#ffffff" fill="none" stroke-width="1.05" stroke-dasharray="0,0"></path><path d="M 35.00000000000003 67.2969279639062 L 35.00000000000003 64.15982533752522 L 35.00000000000003 60.10974252561705" fill="none" stroke="#ffffff" stroke-width="1.05" stroke-dasharray="0,0"></path><path d="M 35.00000000000003 64.15982533752522 L 37.852958886841435 61.306866450684055" fill="none" stroke="#ffffff" stroke-width="1.05" stroke-dasharray="0,0"></path><path d="M 35.00000000000003 64.15982533752522 L 32.147041113159986 61.306866450684055" fill="none" stroke="#ffffff" stroke-width="1.05" stroke-dasharray="0,0"></path><path d="M 37.34092905151559 68.64846398195367 L 40.05773962024162 67.07991266876317 L 43.565214222785045 65.05487126280849" fill="none" stroke="#ffffff" stroke-width="1.05" stroke-dasharray="0,0"></path><path d="M 40.05773962024162 67.07991266876317 L 43.9549539356199 68.12416809729822" fill="none" stroke="#ffffff" stroke-width="1.05" stroke-dasharray="0,0"></path><path d="M 40.05773962024162 67.07991266876317 L 41.10199504877849 63.18269835338583" fill="none" stroke="#ffffff" stroke-width="1.05" stroke-dasharray="0,0"></path><path d="M 37.34092905151559 71.35153601804632 L 40.05773962024162 72.9200873312368 L 43.565214222785045 74.94512873719145" fill="none" stroke="#ffffff" stroke-width="1.05" stroke-dasharray="0,0"></path><path d="M 40.05773962024162 72.9200873312368 L 41.10199504877849 76.81730164661417" fill="none" stroke="#ffffff" stroke-width="1.05" stroke-dasharray="0,0"></path><path d="M 40.05773962024162 72.9200873312368 L 43.9549539356199 71.87583190270175" fill="none" stroke="#ffffff" stroke-width="1.05" stroke-dasharray="0,0"></path><path d="M 35.00000000000003 72.70307203609377 L 35.00000000000003 75.84017466247474 L 35.00000000000003 79.8902574743829" fill="none" stroke="#ffffff" stroke-width="1.05" stroke-dasharray="0,0"></path><path d="M 35.00000000000003 75.84017466247474 L 32.147041113159986 78.69313354931592" fill="none" stroke="#ffffff" stroke-width="1.05" stroke-dasharray="0,0"></path><path d="M 35.00000000000003 75.84017466247474 L 37.852958886841435 78.69313354931592" fill="none" stroke="#ffffff" stroke-width="1.05" stroke-dasharray="0,0"></path><path d="M 32.659070948484015 71.35153601804632 L 29.9422603797598 72.9200873312368 L 26.434785777216888 74.94512873719145" fill="none" stroke="#ffffff" stroke-width="1.05" stroke-dasharray="0,0"></path><path d="M 29.9422603797598 72.9200873312368 L 26.04504606438158 71.87583190270175" fill="none" stroke="#ffffff" stroke-width="1.05" stroke-dasharray="0,0"></path><path d="M 29.9422603797598 72.9200873312368 L 28.898004951222475 76.81730164661417" fill="none" stroke="#ffffff" stroke-width="1.05" stroke-dasharray="0,0"></path><path d="M 32.659070948484015 68.64846398195367 L 29.9422603797598 67.07991266876317 L 26.434785777216888 65.05487126280849" fill="none" stroke="#ffffff" stroke-width="1.05" stroke-dasharray="0,0"></path><path d="M 29.9422603797598 67.07991266876317 L 28.898004951222475 63.18269835338583" fill="none" stroke="#ffffff" stroke-width="1.05" stroke-dasharray="0,0"></path><path d="M 29.9422603797598 67.07991266876317 L 26.04504606438158 68.12416809729822" fill="none" stroke="#ffffff" stroke-width="1.05" stroke-dasharray="0,0"></path><path d="M 62.29692796390667 70.00000000000001 A 2.7030720360932428 2.7030720360932428 540 1 1 62.296929315442576 70.0027030715856" stroke="#ffffff" fill="none" stroke-width="1.05" stroke-dasharray="0,0"></path><path d="M 64.99999999999946 67.2969279639062 L 64.99999999999946 64.15982533752522 L 64.99999999999946 60.10974252561705" fill="none" stroke="#ffffff" stroke-width="1.05" stroke-dasharray="0,0"></path><path d="M 64.99999999999946 64.15982533752522 L 62.14704111315805 61.306866450684055" fill="none" stroke="#ffffff" stroke-width="1.05" stroke-dasharray="0,0"></path><path d="M 64.99999999999946 64.15982533752522 L 67.85295888684087 61.306866450684055" fill="none" stroke="#ffffff" stroke-width="1.05" stroke-dasharray="0,0"></path><path d="M 62.6590709484839 68.64846398195367 L 59.94226037975787 67.07991266876317 L 56.4347857772149 65.05487126280849" fill="none" stroke="#ffffff" stroke-width="1.05" stroke-dasharray="0,0"></path><path d="M 59.94226037975787 67.07991266876317 L 56.045046064380955 68.12416809729822" fill="none" stroke="#ffffff" stroke-width="1.05" stroke-dasharray="0,0"></path><path d="M 59.94226037975787 67.07991266876317 L 58.89800495122236 63.18269835338583" fill="none" stroke="#ffffff" stroke-width="1.05" stroke-dasharray="0,0"></path><path d="M 62.6590709484839 71.35153601804632 L 59.94226037975787 72.9200873312368 L 56.4347857772149 74.94512873719145" fill="none" stroke="#ffffff" stroke-width="1.05" stroke-dasharray="0,0"></path><path d="M 59.94226037975787 72.9200873312368 L 58.89800495122236 76.81730164661417" fill="none" stroke="#ffffff" stroke-width="1.05" stroke-dasharray="0,0"></path><path d="M 59.94226037975787 72.9200873312368 L 56.045046064380955 71.87583190270175" fill="none" stroke="#ffffff" stroke-width="1.05" stroke-dasharray="0,0"></path><path d="M 64.99999999999946 72.70307203609377 L 64.99999999999946 75.84017466247474 L 64.99999999999946 79.8902574743829" fill="none" stroke="#ffffff" stroke-width="1.05" stroke-dasharray="0,0"></path><path d="M 64.99999999999946 75.84017466247474 L 67.85295888684087 78.69313354931592" fill="none" stroke="#ffffff" stroke-width="1.05" stroke-dasharray="0,0"></path><path d="M 64.99999999999946 75.84017466247474 L 62.14704111315805 78.69313354931592" fill="none" stroke="#ffffff" stroke-width="1.05" stroke-dasharray="0,0"></path><path d="M 67.34092905151593 71.35153601804632 L 70.05773962024105 72.9200873312368 L 73.56521422278396 74.94512873719145" fill="none" stroke="#ffffff" stroke-width="1.05" stroke-dasharray="0,0"></path><path d="M 70.05773962024105 72.9200873312368 L 73.95495393561791 71.87583190270175" fill="none" stroke="#ffffff" stroke-width="1.05" stroke-dasharray="0,0"></path><path d="M 70.05773962024105 72.9200873312368 L 71.10199504877838 76.81730164661417" fill="none" stroke="#ffffff" stroke-width="1.05" stroke-dasharray="0,0"></path><path d="M 67.34092905151593 68.64846398195367 L 70.05773962024105 67.07991266876317 L 73.56521422278396 65.05487126280849" fill="none" stroke="#ffffff" stroke-width="1.05" stroke-dasharray="0,0"></path><path d="M 70.05773962024105 67.07991266876317 L 71.10199504877838 63.18269835338583" fill="none" stroke="#ffffff" stroke-width="1.05" stroke-dasharray="0,0"></path><path d="M 70.05773962024105 67.07991266876317 L 73.95495393561791 68.12416809729822" fill="none" stroke="#ffffff" stroke-width="1.05" stroke-dasharray="0,0"></path></svg>