<svg width="100" height="100" viewBox="0 0 100 100" xmlns="http://www.w3.org/2000/svg" stroke-linecap="round" stroke-linejoin="round"><path d="M 72.17298259608094 52.305357260324364 L 30.330293803392067 52.305357260324364 L 41.1502673969411 40.065309911398835 L 56.61035793885037 33.022379388372514 L 63.8044448375428 39.03246831287036 L 72.17298259608094 52.305357260324364" fill="#ffffff" stroke="#ffffff" stroke-width="0.8" stroke-dasharray="0,0"></path><path d="M 41.232644916129445 41.4030061475871 A 10.90235111273745 10.90235111273745 0 1 1 41.232639464954346 41.392103798291416" stroke="#ffffff" fill="#ffffff" stroke-width="0.8" stroke-dasharray="0,0"></path><path d="M 57.61248423711329 28.271707046514774 A 12.906043878415105 12.906043878415105 0 1 1 57.612477784091894 28.258801004787358" stroke="#ffffff" fill="#ffffff" stroke-width="0.8" stroke-dasharray="0,0"></path><path d="M 71.1151565666246 31.721756583788842 A 7.3107117290818655 7.3107117290818655 0 1 1 71.11515291126905 31.71444587327821" stroke="#ffffff" fill="#ffffff" stroke-width="0.8" stroke-dasharray="0,0"></path><path d="M 81.05086342902737 43.427476427377805 A 8.877880832946737 8.877880832946737 0 1 1 81.05085899008732 43.4185985480245" stroke="#ffffff" fill="#ffffff" stroke-width="0.8" stroke-dasharray="0,0"></path><path d="M 50.05864188962223 62.33651634120407 A 3.243686443311891 3.243686443311891 0 1 1 50.05864026777914 62.33327265530137" stroke="#ffffff" fill="#ffffff" stroke-width="1.26" stroke-dasharray="0,0"></path><path d="M 29.403556781996866 71.01470927085074 A 3.243686443311891 3.243686443311891 0 1 1 29.40355516015378 71.01146558494804" stroke="#ffffff" fill="#ffffff" stroke-width="1.26" stroke-dasharray="0,0"></path><path d="M 72.4772918529837 68.66807244307903 A 3.243686443311891 3.243686443311891 540 1 1 72.47729347482678 68.67131612898173" stroke="#ffffff" fill="#ffffff" stroke-width="1.26" stroke-dasharray="0,0"></path><path d="M 52.51934285748957 77.90386594845677 A 3.243686443311891 3.243686443311891 540 1 1 52.51934447933266 77.90710963435947" stroke="#ffffff" fill="#ffffff" stroke-width="1.26" stroke-dasharray="0,0"></path></svg>