<svg width="100" height="100" viewBox="0 0 100 100" xmlns="http://www.w3.org/2000/svg" stroke-linecap="round" stroke-linejoin="round"><path d="M 85.41116026912769 56.52000381226853 L 33.10779927826664 56.52000381226853 L 46.63276627020335 41.21994462611164 L 65.9578794475905 32.41628147232872 L 74.95048807095591 39.92889262795106 L 85.41116026912769 56.52000381226853" fill="#48484a" stroke="#48484a" stroke-width="1" stroke-dasharray="0,0"></path><path d="M 46.735738169188224 42.892064921346986 A 13.627938890921813 13.627938890921813 0 1 1 46.73573135521935 42.87843698472738" stroke="#48484a" fill="#48484a" stroke-width="1" stroke-dasharray="0,0"></path><path d="M 67.21053732041884 26.477941045006535 A 16.13255484801888 16.13255484801888 0 1 1 67.21052925414207 26.461808492847265" stroke="#48484a" fill="#48484a" stroke-width="1" stroke-dasharray="0,0"></path><path d="M 84.08887773230825 30.790502966599096 A 9.138389661352331 9.138389661352331 0 1 1 84.08887316311379 30.781364578460803" stroke="#48484a" fill="#48484a" stroke-width="1" stroke-dasharray="0,0"></path><path d="M 96.50851131031156 45.42265277108535 A 11.09735104118342 11.09735104118342 0 1 1 96.50850576163651 45.41155542189372" stroke="#48484a" fill="#48484a" stroke-width="1" stroke-dasharray="0,0"></path><path d="M 69.42278857147758 66.67206099652239 L 17.11942758061494 66.67206099652239 L 30.64439457255142 51.372001810365504 L 49.96950774993999 42.56833865658254 L 58.962116373304895 50.08094981220492 L 69.42278857147758 66.67206099652239" fill="#ffffff" stroke="#ffffff" stroke-width="1" stroke-dasharray="0,0"></path><path d="M 30.74736647153719 53.044122105600835 A 13.627938890921813 13.627938890921813 0 1 1 30.747359657568317 53.03049416898123" stroke="#ffffff" fill="#ffffff" stroke-width="1" stroke-dasharray="0,0"></path><path d="M 51.22216562276762 36.62999822926041 A 16.13255484801888 16.13255484801888 0 1 1 51.22215755649086 36.61386567710114" stroke="#ffffff" fill="#ffffff" stroke-width="1" stroke-dasharray="0,0"></path><path d="M 68.10050603465703 40.94256015085293 A 9.138389661352331 9.138389661352331 0 1 1 68.10050146546257 40.93342176271464" stroke="#ffffff" fill="#ffffff" stroke-width="1" stroke-dasharray="0,0"></path><path d="M 80.520139612661 55.5747099553392 A 11.09735104118342 11.09735104118342 0 1 1 80.52013406398595 55.56361260614757" stroke="#ffffff" fill="#ffffff" stroke-width="1" stroke-dasharray="0,0"></path><path d="M 29.83672978741518 57.62475604822484 L 21.973112015281473 73.60771899971508 L 27.53518312240024 73.60771899971508 L 21.589520904445195 89.6546138030127 L 39.74616681734054 68.36530715162654 L 32.90545867410131 68.36530715162654 L 38.8511208920568 57.62475604822484 L 29.83672978741518 57.62475604822484" fill="#ec6e4c" stroke="#000000" stroke-width="0" stroke-dasharray="0,0"></path><path d="M 58.88690541681259 74.8456213356576 A 3.243686443311891 3.243686443311891 0 1 1 58.8869037949695 74.8423776497549" stroke="#ffffff" fill="#ffffff" stroke-width="1.26" stroke-dasharray="0,0"></path><path d="M 15.619840258282647 75.88062647042273 A 3.243686443311891 3.243686443311891 0 1 1 15.61983863643956 75.87738278452002" stroke="#ffffff" fill="#ffffff" stroke-width="1.26" stroke-dasharray="0,0"></path><path d="M 81.12393965197144 72.10740682498295 A 3.243686443311891 3.243686443311891 540 1 1 81.12394127381452 72.11065051088565" stroke="#ffffff" fill="#ffffff" stroke-width="1.26" stroke-dasharray="0,0"></path><path d="M 40.2193346586532 85.16866595281562 A 3.243686443311891 3.243686443311891 540 1 1 40.21933628049629 85.17190963871832" stroke="#ffffff" fill="#ffffff" stroke-width="1.26" stroke-dasharray="0,0"></path><path d="M 65.66108123875038 82.20121717805802 A 3.243686443311891 3.243686443311891 540 1 1 65.66108286059347 82.20446086396072" stroke="#ffffff" fill="#ffffff" stroke-width="1.26" stroke-dasharray="0,0"></path></svg>