<svg width="100" height="100" viewBox="0 0 100 100" xmlns="http://www.w3.org/2000/svg" stroke-linecap="round" stroke-linejoin="round"><path d="M 85.41116026912493 56.52000381226853 L 33.10779927826553 56.52000381226853 L 46.63276627020116 41.21994462611164 L 65.95787944758752 32.41628147232872 L 74.95048807095338 39.92889262795106 L 85.41116026912493 56.52000381226853" fill="#48484a" stroke="#48484a" stroke-width="1" stroke-dasharray="0,0"></path><path d="M 46.73573816918615 42.892064921346986 A 13.627938890921813 13.627938890921813 0 1 1 46.735731355217276 42.87843698472738" stroke="#48484a" fill="#48484a" stroke-width="1" stroke-dasharray="0,0"></path><path d="M 67.21053732041656 26.477941045006535 A 16.13255484801888 16.13255484801888 0 1 1 67.2105292541398 26.461808492847265" stroke="#48484a" fill="#48484a" stroke-width="1" stroke-dasharray="0,0"></path><path d="M 84.08887773230492 30.790502966599096 A 9.138389661352331 9.138389661352331 0 1 1 84.08887316311046 30.781364578460803" stroke="#48484a" fill="#48484a" stroke-width="1" stroke-dasharray="0,0"></path><path d="M 96.50851131030846 45.42265277108535 A 11.09735104118342 11.09735104118342 0 1 1 96.50850576163342 45.41155542189372" stroke="#48484a" fill="#48484a" stroke-width="1" stroke-dasharray="0,0"></path><path d="M 69.42278857147414 66.67206099652239 L 17.119427580613205 66.67206099652239 L 30.64439457255031 51.372001810365504 L 49.96950774993741 42.56833865658254 L 58.96211637330197 50.08094981220492 L 69.42278857147414 66.67206099652239" fill="#ffffff" stroke="#ffffff" stroke-width="1" stroke-dasharray="0,0"></path><path d="M 30.747366471536026 53.044122105600835 A 13.627938890921813 13.627938890921813 0 1 1 30.747359657567152 53.03049416898123" stroke="#ffffff" fill="#ffffff" stroke-width="1" stroke-dasharray="0,0"></path><path d="M 51.222165622765374 36.62999822926041 A 16.13255484801888 16.13255484801888 0 1 1 51.22215755648862 36.61386567710114" stroke="#ffffff" fill="#ffffff" stroke-width="1" stroke-dasharray="0,0"></path><path d="M 68.10050603465447 40.94256015085293 A 9.138389661352331 9.138389661352331 0 1 1 68.10050146546001 40.93342176271464" stroke="#ffffff" fill="#ffffff" stroke-width="1" stroke-dasharray="0,0"></path><path d="M 80.52013961265793 55.5747099553392 A 11.09735104118342 11.09735104118342 0 1 1 80.52013406398288 55.56361260614757" stroke="#ffffff" fill="#ffffff" stroke-width="1" stroke-dasharray="0,0"></path><path d="M 29.836729787414527 57.62475604822484 L 21.973112015279284 73.60771899971508 L 27.53518312239916 73.60771899971508 L 21.58952090444302 89.6546138030127 L 39.74616681733784 68.36530715162654 L 32.9054586741002 68.36530715162654 L 38.85112089205501 57.62475604822484 L 29.836729787414527 57.62475604822484" fill="#ec6e4c" stroke="#000000" stroke-width="0" stroke-dasharray="0,0"></path></svg>