<svg width="100" height="100" viewBox="0 0 100 100" xmlns="http://www.w3.org/2000/svg" stroke-linecap="round" stroke-linejoin="round"><path d="M 72.1729825960789 52.30535726032464 L 30.330293803390475 52.30535726032464 L 41.15026739693957 40.065309911399055 L 56.610357938848836 33.022379388372634 L 63.804444837540984 39.032468312870634 L 72.1729825960789 52.30535726032464" fill="#ffffff" stroke="#ffffff" stroke-width="0.8" stroke-dasharray="0,0"></path><path d="M 41.232644916127676 41.40300614758738 A 10.90235111273745 10.90235111273745 0 1 1 41.23263946495258 41.39210379829169" stroke="#ffffff" fill="#ffffff" stroke-width="0.8" stroke-dasharray="0,0"></path><path d="M 57.61248423711173 28.27170704651502 A 12.906043878415105 12.906043878415105 0 1 1 57.61247778409033 28.258801004787603" stroke="#ffffff" fill="#ffffff" stroke-width="0.8" stroke-dasharray="0,0"></path><path d="M 71.11515656662282 31.721756583789073 A 7.3107117290818655 7.3107117290818655 0 1 1 71.11515291126726 31.71444587327844" stroke="#ffffff" fill="#ffffff" stroke-width="0.8" stroke-dasharray="0,0"></path><path d="M 81.05086342902547 43.427476427378025 A 8.877880832946737 8.877880832946737 0 1 1 81.05085899008542 43.41859854802472" stroke="#ffffff" fill="#ffffff" stroke-width="0.8" stroke-dasharray="0,0"></path><path d="M 26.159870338683234 68.85363373284305 L 21.06220493076276 73.95129914076236" fill="none" stroke="#459ef2" stroke-width="3" stroke-dasharray="0,0"></path><path d="M 46.8149554463086 60.17544080319634 L 41.71729003838908 65.27310621111589" fill="none" stroke="#459ef2" stroke-width="3" stroke-dasharray="0,0"></path><path d="M 75.72097829629377 66.50699690507122 L 70.62331288837288 71.60466231299077" fill="none" stroke="#459ef2" stroke-width="3" stroke-dasharray="0,0"></path><path d="M 55.763029300799815 75.74279041044886 L 50.665363892879384 80.84045581836844" fill="none" stroke="#459ef2" stroke-width="3" stroke-dasharray="0,0"></path></svg>