<svg width="100" height="100" viewBox="0 0 100 100" xmlns="http://www.w3.org/2000/svg" stroke-linecap="round" stroke-linejoin="round"><path d="M 72.17298259607946 52.30535726032464 L 30.330293803390873 52.30535726032464 L 41.15026739693997 40.065309911399055 L 56.61035793884935 33.022379388372656 L 63.80444483754144 39.032468312870634 L 72.17298259607946 52.30535726032464" fill="#ffffff" stroke="#ffffff" stroke-width="0.8" stroke-dasharray="0,0"></path><path d="M 41.23264491612808 41.40300614758738 A 10.90235111273745 10.90235111273745 0 1 1 41.23263946495298 41.39210379829169" stroke="#ffffff" fill="#ffffff" stroke-width="0.8" stroke-dasharray="0,0"></path><path d="M 57.612484237112184 28.271707046514997 A 12.906043878415105 12.906043878415105 0 1 1 57.612477784090785 28.258801004787582" stroke="#ffffff" fill="#ffffff" stroke-width="0.8" stroke-dasharray="0,0"></path><path d="M 71.11515656662336 31.721756583789066 A 7.3107117290818655 7.3107117290818655 0 1 1 71.1151529112678 31.714445873278432" stroke="#ffffff" fill="#ffffff" stroke-width="0.8" stroke-dasharray="0,0"></path><path d="M 81.05086342902592 43.427476427378025 A 8.877880832946737 8.877880832946737 0 1 1 81.05085899008587 43.41859854802472" stroke="#ffffff" fill="#ffffff" stroke-width="0.8" stroke-dasharray="0,0"></path><path d="M 28.713208295166964 59.12862942933653 L 23.61554288724652 64.22629483725575" fill="none" stroke="#459ef2" stroke-width="3" stroke-dasharray="0,0"></path><path d="M 47.603452132838754 63.966117505089755 L 42.505786724919176 69.06378291300939" fill="none" stroke="#459ef2" stroke-width="3" stroke-dasharray="0,0"></path><path d="M 78.15516643070191 59.30876950005923 L 73.05750102278103 64.40643490797868" fill="none" stroke="#459ef2" stroke-width="3" stroke-dasharray="0,0"></path><path d="M 50.08585315778595 80.47966313617803 L 44.98818774986552 85.57732854409761" fill="none" stroke="#459ef2" stroke-width="3" stroke-dasharray="0,0"></path><path d="M 33.765544243213384 75.7210664549799 A 1.8921504252652699 1.8921504252652699 360 1 1 33.76554329713825 75.71917430487" stroke="#ffffff" fill="none" stroke-width="1.05" stroke-dasharray="0,0"></path><path d="M 31.87339381794834 77.61321688024566 L 31.87339381794834 79.80918871871233 L 31.87339381794834 82.64424668704794" fill="none" stroke="#ffffff" stroke-width="1.05" stroke-dasharray="0,0"></path><path d="M 31.87339381794834 79.80918871871233 L 33.87046503873751 81.80625993950105" fill="none" stroke="#ffffff" stroke-width="1.05" stroke-dasharray="0,0"></path><path d="M 31.87339381794834 79.80918871871233 L 29.876322597159856 81.80625993950105" fill="none" stroke="#ffffff" stroke-width="1.05" stroke-dasharray="0,0"></path><path d="M 33.51204415400923 76.66714166761233 L 35.413811552117636 77.76512758684578 L 37.869043773897715 79.18265657101404" fill="none" stroke="#ffffff" stroke-width="1.05" stroke-dasharray="0,0"></path><path d="M 35.413811552117636 77.76512758684578 L 38.141861572881794 77.03414878687124" fill="none" stroke="#ffffff" stroke-width="1.05" stroke-dasharray="0,0"></path><path d="M 35.413811552117636 77.76512758684578 L 36.14479035209263 80.49317760760994" fill="none" stroke="#ffffff" stroke-width="1.05" stroke-dasharray="0,0"></path><path d="M 33.51204415400923 74.77499124234748 L 35.413811552117636 73.67700532311426 L 37.869043773897715 72.259476338946" fill="none" stroke="#ffffff" stroke-width="1.05" stroke-dasharray="0,0"></path><path d="M 35.413811552117636 73.67700532311426 L 36.14479035209263 70.9489553023501" fill="none" stroke="#ffffff" stroke-width="1.05" stroke-dasharray="0,0"></path><path d="M 35.413811552117636 73.67700532311426 L 38.141861572881794 74.4079841230888" fill="none" stroke="#ffffff" stroke-width="1.05" stroke-dasharray="0,0"></path><path d="M 31.87339381794834 73.82891602971438 L 31.87339381794834 71.6329441912477 L 31.87339381794834 68.79788622291207" fill="none" stroke="#ffffff" stroke-width="1.05" stroke-dasharray="0,0"></path><path d="M 31.87339381794834 71.6329441912477 L 29.876322597159856 69.63587297045899" fill="none" stroke="#ffffff" stroke-width="1.05" stroke-dasharray="0,0"></path><path d="M 31.87339381794834 71.6329441912477 L 33.87046503873751 69.63587297045876" fill="none" stroke="#ffffff" stroke-width="1.05" stroke-dasharray="0,0"></path><path d="M 30.234743481886994 74.77499124234771 L 28.332976083779727 73.67700532311426 L 25.877743861999406 72.259476338946" fill="none" stroke="#ffffff" stroke-width="1.05" stroke-dasharray="0,0"></path><path d="M 28.332976083779727 73.67700532311426 L 25.604926063015327 74.4079841230888" fill="none" stroke="#ffffff" stroke-width="1.05" stroke-dasharray="0,0"></path><path d="M 28.332976083779727 73.67700532311426 L 27.601997283803584 70.9489553023501" fill="none" stroke="#ffffff" stroke-width="1.05" stroke-dasharray="0,0"></path><path d="M 30.234743481886994 76.66714166761233 L 28.332976083779727 77.76512758684578 L 25.877743861999406 79.18265657101404" fill="none" stroke="#ffffff" stroke-width="1.05" stroke-dasharray="0,0"></path><path d="M 28.332976083779727 77.76512758684578 L 27.601997283803584 80.49317760760994" fill="none" stroke="#ffffff" stroke-width="1.05" stroke-dasharray="0,0"></path><path d="M 28.332976083779727 77.76512758684578 L 25.604926063015327 77.03414878687124" fill="none" stroke="#ffffff" stroke-width="1.05" stroke-dasharray="0,0"></path><path d="M 61.667860326239804 65.57795868226076 A 1.8921504252652699 1.8921504252652699 360 1 1 61.66785938016467 65.57606653215085" stroke="#ffffff" fill="none" stroke-width="1.05" stroke-dasharray="0,0"></path><path d="M 59.77570990097479 67.47010910752655 L 59.77570990097479 69.66608094599326 L 59.77570990097479 72.50113891432886" fill="none" stroke="#ffffff" stroke-width="1.05" stroke-dasharray="0,0"></path><path d="M 59.77570990097479 69.66608094599326 L 61.7727811217639 71.66315216678197" fill="none" stroke="#ffffff" stroke-width="1.05" stroke-dasharray="0,0"></path><path d="M 59.77570990097479 69.66608094599326 L 57.778638680186305 71.66315216678197" fill="none" stroke="#ffffff" stroke-width="1.05" stroke-dasharray="0,0"></path><path d="M 61.41436023703562 66.52403389489322 L 63.31612763514403 67.62201981412667 L 65.77135985692411 69.03954879829496" fill="none" stroke="#ffffff" stroke-width="1.05" stroke-dasharray="0,0"></path><path d="M 63.31612763514403 67.62201981412667 L 66.04417765590819 66.89104101415214" fill="none" stroke="#ffffff" stroke-width="1.05" stroke-dasharray="0,0"></path><path d="M 63.31612763514403 67.62201981412667 L 64.04710643511902 70.35006983489086" fill="none" stroke="#ffffff" stroke-width="1.05" stroke-dasharray="0,0"></path><path d="M 61.41436023703562 64.63188346962835 L 63.31612763514403 63.53389755039517 L 65.77135985692411 62.11636856622694" fill="none" stroke="#ffffff" stroke-width="1.05" stroke-dasharray="0,0"></path><path d="M 63.31612763514403 63.53389755039517 L 64.04710643511902 60.80584752963104" fill="none" stroke="#ffffff" stroke-width="1.05" stroke-dasharray="0,0"></path><path d="M 63.31612763514403 63.53389755039517 L 66.04417765590819 64.26487635036966" fill="none" stroke="#ffffff" stroke-width="1.05" stroke-dasharray="0,0"></path><path d="M 59.77570990097479 63.68580825699527 L 59.77570990097479 61.48983641852864 L 59.77570990097479 58.654778450193035" fill="none" stroke="#ffffff" stroke-width="1.05" stroke-dasharray="0,0"></path><path d="M 59.77570990097479 61.48983641852864 L 57.778638680186305 59.49276519773993" fill="none" stroke="#ffffff" stroke-width="1.05" stroke-dasharray="0,0"></path><path d="M 59.77570990097479 61.48983641852864 L 61.7727811217639 59.4927651977397" fill="none" stroke="#ffffff" stroke-width="1.05" stroke-dasharray="0,0"></path><path d="M 58.13705956491344 64.63188346962858 L 56.235292166806175 63.53389755039517 L 53.78005994502587 62.11636856622694" fill="none" stroke="#ffffff" stroke-width="1.05" stroke-dasharray="0,0"></path><path d="M 56.235292166806175 63.53389755039517 L 53.50724214604179 64.26487635036966" fill="none" stroke="#ffffff" stroke-width="1.05" stroke-dasharray="0,0"></path><path d="M 56.235292166806175 63.53389755039517 L 55.50431336683005 60.80584752963104" fill="none" stroke="#ffffff" stroke-width="1.05" stroke-dasharray="0,0"></path><path d="M 58.13705956491344 66.52403389489322 L 56.235292166806175 67.62201981412667 L 53.78005994502587 69.03954879829496" fill="none" stroke="#ffffff" stroke-width="1.05" stroke-dasharray="0,0"></path><path d="M 56.235292166806175 67.62201981412667 L 55.50431336683005 70.35006983489086" fill="none" stroke="#ffffff" stroke-width="1.05" stroke-dasharray="0,0"></path><path d="M 56.235292166806175 67.62201981412667 L 53.50724214604179 66.89104101415214" fill="none" stroke="#ffffff" stroke-width="1.05" stroke-dasharray="0,0"></path><path d="M 76.34082244451653 78.36319800088592 A 1.8921504252652699 1.8921504252652699 360 1 1 76.3408214984414 78.361305850776" stroke="#ffffff" fill="none" stroke-width="1.05" stroke-dasharray="0,0"></path><path d="M 74.44867201925149 80.25534842615167 L 74.44867201925149 82.45132026461835 L 74.44867201925149 85.28637823295395" fill="none" stroke="#ffffff" stroke-width="1.05" stroke-dasharray="0,0"></path><path d="M 74.44867201925149 82.45132026461835 L 76.44574324004066 84.44839148540706" fill="none" stroke="#ffffff" stroke-width="1.05" stroke-dasharray="0,0"></path><path d="M 74.44867201925149 82.45132026461835 L 72.451600798463 84.44839148540706" fill="none" stroke="#ffffff" stroke-width="1.05" stroke-dasharray="0,0"></path><path d="M 76.08732235531238 79.30927321351834 L 77.98908975342079 80.40725913275179 L 80.44432197520081 81.82478811692005" fill="none" stroke="#ffffff" stroke-width="1.05" stroke-dasharray="0,0"></path><path d="M 77.98908975342079 80.40725913275179 L 80.71713977418489 79.67628033277725" fill="none" stroke="#ffffff" stroke-width="1.05" stroke-dasharray="0,0"></path><path d="M 77.98908975342079 80.40725913275179 L 78.72006855339578 83.13530915351595" fill="none" stroke="#ffffff" stroke-width="1.05" stroke-dasharray="0,0"></path><path d="M 76.08732235531238 77.4171227882535 L 77.98908975342079 76.31913686902027 L 80.44432197520081 74.90160788485201" fill="none" stroke="#ffffff" stroke-width="1.05" stroke-dasharray="0,0"></path><path d="M 77.98908975342079 76.31913686902027 L 78.72006855339578 73.59108684825611" fill="none" stroke="#ffffff" stroke-width="1.05" stroke-dasharray="0,0"></path><path d="M 77.98908975342079 76.31913686902027 L 80.71713977418489 77.0501156689948" fill="none" stroke="#ffffff" stroke-width="1.05" stroke-dasharray="0,0"></path><path d="M 74.44867201925149 76.47104757562039 L 74.44867201925149 74.27507573715371 L 74.44867201925149 71.44001776881811" fill="none" stroke="#ffffff" stroke-width="1.05" stroke-dasharray="0,0"></path><path d="M 74.44867201925149 74.27507573715371 L 72.451600798463 72.278004516365" fill="none" stroke="#ffffff" stroke-width="1.05" stroke-dasharray="0,0"></path><path d="M 74.44867201925149 74.27507573715371 L 76.44574324004066 72.27800451636477" fill="none" stroke="#ffffff" stroke-width="1.05" stroke-dasharray="0,0"></path><path d="M 72.81002168319014 77.41712278825372 L 70.90825428508288 76.31913686902027 L 68.45302206330251 74.90160788485201" fill="none" stroke="#ffffff" stroke-width="1.05" stroke-dasharray="0,0"></path><path d="M 70.90825428508288 76.31913686902027 L 68.18020426431843 77.0501156689948" fill="none" stroke="#ffffff" stroke-width="1.05" stroke-dasharray="0,0"></path><path d="M 70.90825428508288 76.31913686902027 L 70.17727548510675 73.59108684825611" fill="none" stroke="#ffffff" stroke-width="1.05" stroke-dasharray="0,0"></path><path d="M 72.81002168319014 79.30927321351834 L 70.90825428508288 80.40725913275179 L 68.45302206330251 81.82478811692005" fill="none" stroke="#ffffff" stroke-width="1.05" stroke-dasharray="0,0"></path><path d="M 70.90825428508288 80.40725913275179 L 70.17727548510675 83.13530915351595" fill="none" stroke="#ffffff" stroke-width="1.05" stroke-dasharray="0,0"></path><path d="M 70.90825428508288 80.40725913275179 L 68.18020426431843 79.67628033277725" fill="none" stroke="#ffffff" stroke-width="1.05" stroke-dasharray="0,0"></path></svg>