<svg width="100" height="100" viewBox="0 0 100 100" xmlns="http://www.w3.org/2000/svg" stroke-linecap="round" stroke-linejoin="round"><path d="M 72.17298259608069 52.30535726032437 L 30.33029380339198 52.30535726032437 L 41.150267396941075 40.06530991139884 L 56.61035793885057 33.022379388372514 L 63.80444483754272 39.032468312870364 L 72.17298259608069 52.30535726032437" fill="#ffffff" stroke="#ffffff" stroke-width="0.8" stroke-dasharray="0,0"></path><path d="M 41.232644916129125 41.40300614758711 A 10.90235111273745 10.90235111273745 0 1 1 41.232639464954026 41.39210379829142" stroke="#ffffff" fill="#ffffff" stroke-width="0.8" stroke-dasharray="0,0"></path><path d="M 57.61248423711335 28.271707046514774 A 12.906043878415105 12.906043878415105 0 1 1 57.61247778409195 28.258801004787358" stroke="#ffffff" fill="#ffffff" stroke-width="0.8" stroke-dasharray="0,0"></path><path d="M 71.11515656662458 31.721756583788842 A 7.3107117290818655 7.3107117290818655 0 1 1 71.11515291126902 31.71444587327821" stroke="#ffffff" fill="#ffffff" stroke-width="0.8" stroke-dasharray="0,0"></path><path d="M 81.05086342902709 43.42747642737781 A 8.877880832946737 8.877880832946737 0 1 1 81.05085899008704 43.418598548024505" stroke="#ffffff" fill="#ffffff" stroke-width="0.8" stroke-dasharray="0,0"></path><path d="M 52.7030720360945 70.00000000000001 A 2.7030720360932428 2.7030720360932428 0 1 1 52.70307068455859 69.99729692841443" stroke="#ffffff" fill="none" stroke-width="1.05" stroke-dasharray="0,0"></path><path d="M 50.000000000001904 67.2969279639062 L 50.000000000001904 64.15982533752522 L 50.000000000001904 60.109742525617065" fill="none" stroke="#ffffff" stroke-width="1.05" stroke-dasharray="0,0"></path><path d="M 50.000000000001904 64.15982533752522 L 52.85295888684291 61.30686645068407" fill="none" stroke="#ffffff" stroke-width="1.05" stroke-dasharray="0,0"></path><path d="M 50.000000000001904 64.15982533752522 L 47.14704111316027 61.30686645068407" fill="none" stroke="#ffffff" stroke-width="1.05" stroke-dasharray="0,0"></path><path d="M 52.34092905151752 68.64846398195367 L 55.0577396202431 67.07991266876317 L 58.56521422278601 65.05487126280849" fill="none" stroke="#ffffff" stroke-width="1.05" stroke-dasharray="0,0"></path><path d="M 55.0577396202431 67.07991266876317 L 58.95495393562041 68.12416809729822" fill="none" stroke="#ffffff" stroke-width="1.05" stroke-dasharray="0,0"></path><path d="M 55.0577396202431 67.07991266876317 L 56.10199504877946 63.182698353385845" fill="none" stroke="#ffffff" stroke-width="1.05" stroke-dasharray="0,0"></path><path d="M 52.34092905151752 71.35153601804632 L 55.0577396202431 72.9200873312368 L 58.56521422278601 74.94512873719145" fill="none" stroke="#ffffff" stroke-width="1.05" stroke-dasharray="0,0"></path><path d="M 55.0577396202431 72.9200873312368 L 56.10199504877946 76.81730164661417" fill="none" stroke="#ffffff" stroke-width="1.05" stroke-dasharray="0,0"></path><path d="M 55.0577396202431 72.9200873312368 L 58.95495393562041 71.87583190270175" fill="none" stroke="#ffffff" stroke-width="1.05" stroke-dasharray="0,0"></path><path d="M 50.000000000001904 72.70307203609377 L 50.000000000001904 75.84017466247474 L 50.000000000001904 79.8902574743829" fill="none" stroke="#ffffff" stroke-width="1.05" stroke-dasharray="0,0"></path><path d="M 50.000000000001904 75.84017466247474 L 47.14704111316027 78.69313354931592" fill="none" stroke="#ffffff" stroke-width="1.05" stroke-dasharray="0,0"></path><path d="M 50.000000000001904 75.84017466247474 L 52.85295888684291 78.69313354931592" fill="none" stroke="#ffffff" stroke-width="1.05" stroke-dasharray="0,0"></path><path d="M 47.65907094848498 71.35153601804632 L 44.942260379760086 72.9200873312368 L 41.434785777217115 74.94512873719145" fill="none" stroke="#ffffff" stroke-width="1.05" stroke-dasharray="0,0"></path><path d="M 44.942260379760086 72.9200873312368 L 41.04504606438272 71.87583190270175" fill="none" stroke="#ffffff" stroke-width="1.05" stroke-dasharray="0,0"></path><path d="M 44.942260379760086 72.9200873312368 L 43.89800495122276 76.81730164661417" fill="none" stroke="#ffffff" stroke-width="1.05" stroke-dasharray="0,0"></path><path d="M 47.65907094848498 68.64846398195367 L 44.942260379760086 67.07991266876317 L 41.434785777217115 65.05487126280849" fill="none" stroke="#ffffff" stroke-width="1.05" stroke-dasharray="0,0"></path><path d="M 44.942260379760086 67.07991266876317 L 43.89800495122276 63.182698353385845" fill="none" stroke="#ffffff" stroke-width="1.05" stroke-dasharray="0,0"></path><path d="M 44.942260379760086 67.07991266876317 L 41.04504606438272 68.12416809729822" fill="none" stroke="#ffffff" stroke-width="1.05" stroke-dasharray="0,0"></path><path d="M 72.29692796390809 70.00000000000001 A 2.7030720360932428 2.7030720360932428 540 1 1 72.296929315444 70.0027030715856" stroke="#ffffff" fill="none" stroke-width="1.05" stroke-dasharray="0,0"></path><path d="M 75.00000000000077 67.2969279639062 L 75.00000000000077 64.15982533752522 L 75.00000000000077 60.109742525617065" fill="none" stroke="#ffffff" stroke-width="1.05" stroke-dasharray="0,0"></path><path d="M 75.00000000000077 64.15982533752522 L 72.14704111315959 61.30686645068407" fill="none" stroke="#ffffff" stroke-width="1.05" stroke-dasharray="0,0"></path><path d="M 75.00000000000077 64.15982533752522 L 77.85295888684172 61.30686645068407" fill="none" stroke="#ffffff" stroke-width="1.05" stroke-dasharray="0,0"></path><path d="M 72.65907094848544 68.64846398195367 L 69.9422603797594 67.07991266876317 L 66.43478577721643 65.05487126280849" fill="none" stroke="#ffffff" stroke-width="1.05" stroke-dasharray="0,0"></path><path d="M 69.9422603797594 67.07991266876317 L 66.04504606438203 68.12416809729822" fill="none" stroke="#ffffff" stroke-width="1.05" stroke-dasharray="0,0"></path><path d="M 69.9422603797594 67.07991266876317 L 68.89800495122344 63.182698353385845" fill="none" stroke="#ffffff" stroke-width="1.05" stroke-dasharray="0,0"></path><path d="M 72.65907094848544 71.35153601804632 L 69.9422603797594 72.9200873312368 L 66.43478577721643 74.94512873719145" fill="none" stroke="#ffffff" stroke-width="1.05" stroke-dasharray="0,0"></path><path d="M 69.9422603797594 72.9200873312368 L 68.89800495122344 76.81730164661417" fill="none" stroke="#ffffff" stroke-width="1.05" stroke-dasharray="0,0"></path><path d="M 69.9422603797594 72.9200873312368 L 66.04504606438203 71.87583190270175" fill="none" stroke="#ffffff" stroke-width="1.05" stroke-dasharray="0,0"></path><path d="M 75.00000000000077 72.70307203609377 L 75.00000000000077 75.84017466247474 L 75.00000000000077 79.8902574743829" fill="none" stroke="#ffffff" stroke-width="1.05" stroke-dasharray="0,0"></path><path d="M 75.00000000000077 75.84017466247474 L 77.85295888684172 78.69313354931592" fill="none" stroke="#ffffff" stroke-width="1.05" stroke-dasharray="0,0"></path><path d="M 75.00000000000077 75.84017466247474 L 72.14704111315959 78.69313354931592" fill="none" stroke="#ffffff" stroke-width="1.05" stroke-dasharray="0,0"></path><path d="M 77.34092905151724 71.35153601804632 L 80.0577396202419 72.9200873312368 L 83.56521422278487 74.94512873719145" fill="none" stroke="#ffffff" stroke-width="1.05" stroke-dasharray="0,0"></path><path d="M 80.0577396202419 72.9200873312368 L 83.95495393561927 71.87583190270175" fill="none" stroke="#ffffff" stroke-width="1.05" stroke-dasharray="0,0"></path><path d="M 80.0577396202419 72.9200873312368 L 81.10199504877923 76.81730164661417" fill="none" stroke="#ffffff" stroke-width="1.05" stroke-dasharray="0,0"></path><path d="M 77.34092905151724 68.64846398195367 L 80.0577396202419 67.07991266876317 L 83.56521422278487 65.05487126280849" fill="none" stroke="#ffffff" stroke-width="1.05" stroke-dasharray="0,0"></path><path d="M 80.0577396202419 67.07991266876317 L 81.10199504877923 63.182698353385845" fill="none" stroke="#ffffff" stroke-width="1.05" stroke-dasharray="0,0"></path><path d="M 80.0577396202419 67.07991266876317 L 83.95495393561927 68.12416809729822" fill="none" stroke="#ffffff" stroke-width="1.05" stroke-dasharray="0,0"></path><path d="M 27.703072036094273 70.00000000000001 A 2.7030720360932428 2.7030720360932428 0 1 1 27.70307068455837 69.99729692841443" stroke="#ffffff" fill="none" stroke-width="1.05" stroke-dasharray="0,0"></path><path d="M 25.000000000001677 67.2969279639062 L 25.000000000001677 64.15982533752522 L 25.000000000001677 60.109742525617065" fill="none" stroke="#ffffff" stroke-width="1.05" stroke-dasharray="0,0"></path><path d="M 25.000000000001677 64.15982533752522 L 27.85295888684263 61.30686645068407" fill="none" stroke="#ffffff" stroke-width="1.05" stroke-dasharray="0,0"></path><path d="M 25.000000000001677 64.15982533752522 L 22.14704111316034 61.30686645068407" fill="none" stroke="#ffffff" stroke-width="1.05" stroke-dasharray="0,0"></path><path d="M 27.340929051517236 68.64846398195367 L 30.057739620242813 67.07991266876317 L 33.565214222785784 65.05487126280849" fill="none" stroke="#ffffff" stroke-width="1.05" stroke-dasharray="0,0"></path><path d="M 30.057739620242813 67.07991266876317 L 33.95495393562018 68.12416809729822" fill="none" stroke="#ffffff" stroke-width="1.05" stroke-dasharray="0,0"></path><path d="M 30.057739620242813 67.07991266876317 L 31.10199504877923 63.182698353385845" fill="none" stroke="#ffffff" stroke-width="1.05" stroke-dasharray="0,0"></path><path d="M 27.340929051517236 71.35153601804632 L 30.057739620242813 72.9200873312368 L 33.565214222785784 74.94512873719145" fill="none" stroke="#ffffff" stroke-width="1.05" stroke-dasharray="0,0"></path><path d="M 30.057739620242813 72.9200873312368 L 31.10199504877923 76.81730164661417" fill="none" stroke="#ffffff" stroke-width="1.05" stroke-dasharray="0,0"></path><path d="M 30.057739620242813 72.9200873312368 L 33.95495393562018 71.87583190270175" fill="none" stroke="#ffffff" stroke-width="1.05" stroke-dasharray="0,0"></path><path d="M 25.000000000001677 72.70307203609377 L 25.000000000001677 75.84017466247474 L 25.000000000001677 79.8902574743829" fill="none" stroke="#ffffff" stroke-width="1.05" stroke-dasharray="0,0"></path><path d="M 25.000000000001677 75.84017466247474 L 22.14704111316034 78.69313354931592" fill="none" stroke="#ffffff" stroke-width="1.05" stroke-dasharray="0,0"></path><path d="M 25.000000000001677 75.84017466247474 L 27.85295888684263 78.69313354931592" fill="none" stroke="#ffffff" stroke-width="1.05" stroke-dasharray="0,0"></path><path d="M 22.659070948484825 71.35153601804632 L 19.94226037975993 72.9200873312368 L 16.434785777216945 74.94512873719145" fill="none" stroke="#ffffff" stroke-width="1.05" stroke-dasharray="0,0"></path><path d="M 19.94226037975993 72.9200873312368 L 16.045046064382547 71.87583190270175" fill="none" stroke="#ffffff" stroke-width="1.05" stroke-dasharray="0,0"></path><path d="M 19.94226037975993 72.9200873312368 L 18.898004951222603 76.81730164661417" fill="none" stroke="#ffffff" stroke-width="1.05" stroke-dasharray="0,0"></path><path d="M 22.659070948484825 68.64846398195367 L 19.94226037975993 67.07991266876317 L 16.434785777216945 65.05487126280849" fill="none" stroke="#ffffff" stroke-width="1.05" stroke-dasharray="0,0"></path><path d="M 19.94226037975993 67.07991266876317 L 18.898004951222603 63.182698353385845" fill="none" stroke="#ffffff" stroke-width="1.05" stroke-dasharray="0,0"></path><path d="M 19.94226037975993 67.07991266876317 L 16.045046064382547 68.12416809729822" fill="none" stroke="#ffffff" stroke-width="1.05" stroke-dasharray="0,0"></path></svg>