<svg width="100" height="100" viewBox="0 0 100 100" xmlns="http://www.w3.org/2000/svg" stroke-linecap="round" stroke-linejoin="round"><path d="M 72.17298259607901 52.30535726032462 L 30.33029380339036 52.30535726032462 L 41.150267396939455 40.065309911399034 L 56.61035793884872 33.02237938837265 L 63.804444837540814 39.03246831287061 L 72.17298259607901 52.30535726032462" fill="#ffffff" stroke="#ffffff" stroke-width="0.8" stroke-dasharray="0,0"></path><path d="M 41.23264491612782 41.403006147587355 A 10.90235111273745 10.90235111273745 0 1 1 41.23263946495272 41.39210379829167" stroke="#ffffff" fill="#ffffff" stroke-width="0.8" stroke-dasharray="0,0"></path><path d="M 57.61248423711139 28.271707046514997 A 12.906043878415105 12.906043878415105 0 1 1 57.61247778408999 28.258801004787582" stroke="#ffffff" fill="#ffffff" stroke-width="0.8" stroke-dasharray="0,0"></path><path d="M 71.11515656662282 31.721756583789066 A 7.3107117290818655 7.3107117290818655 0 1 1 71.11515291126726 31.714445873278432" stroke="#ffffff" fill="#ffffff" stroke-width="0.8" stroke-dasharray="0,0"></path><path d="M 81.05086342902567 43.427476427378004 A 8.877880832946737 8.877880832946737 0 1 1 81.05085899008562 43.4185985480247" stroke="#ffffff" fill="#ffffff" stroke-width="0.8" stroke-dasharray="0,0"></path><path d="M 27.76827872515429 68.85363373284308 L 22.67061331723434 73.95129914076239" fill="none" stroke="#459ef2" stroke-width="4.800000000000001" stroke-dasharray="0,0"></path><path d="M 48.423363832780126 60.17544080319634 L 43.325698424860605 65.27310621111586" fill="none" stroke="#459ef2" stroke-width="4.800000000000001" stroke-dasharray="0,0"></path><path d="M 77.32938668276557 68.36161643604878 L 72.23172127484463 73.45928184396809" fill="none" stroke="#459ef2" stroke-width="4.800000000000001" stroke-dasharray="0,0"></path><path d="M 57.25552396658492 73.77225715878564 L 52.157858558664486 78.86992256670521" fill="none" stroke="#459ef2" stroke-width="4.800000000000001" stroke-dasharray="0,0"></path><path d="M 38.72454054665019 77.15715491307361 L 33.62687513873067 82.25482032099319" fill="none" stroke="#459ef2" stroke-width="4.800000000000001" stroke-dasharray="0,0"></path></svg>