<svg width="100" height="100" viewBox="0 0 100 100" xmlns="http://www.w3.org/2000/svg" stroke-linecap="round" stroke-linejoin="round"><path d="M 72.1729825960789 52.305357260324634 L 30.33029380339042 52.305357260324634 L 41.15026739693951 40.06530991139905 L 56.61035793884878 33.02237938837263 L 63.80444483754047 39.03246831287063 L 72.1729825960789 52.305357260324634" fill="#ffffff" stroke="#ffffff" stroke-width="0.8" stroke-dasharray="0,0"></path><path d="M 41.23264491612788 41.40300614758737 A 10.90235111273745 10.90235111273745 0 1 1 41.23263946495278 41.392103798291686" stroke="#ffffff" fill="#ffffff" stroke-width="0.8" stroke-dasharray="0,0"></path><path d="M 57.61248423711167 28.271707046515026 A 12.906043878415105 12.906043878415105 0 1 1 57.612477784090274 28.25880100478761" stroke="#ffffff" fill="#ffffff" stroke-width="0.8" stroke-dasharray="0,0"></path><path d="M 71.11515656662279 31.721756583789073 A 7.3107117290818655 7.3107117290818655 0 1 1 71.11515291126723 31.71444587327844" stroke="#ffffff" fill="#ffffff" stroke-width="0.8" stroke-dasharray="0,0"></path><path d="M 81.05086342902541 43.42747642737802 A 8.877880832946737 8.877880832946737 0 1 1 81.05085899008536 43.41859854802471" stroke="#ffffff" fill="#ffffff" stroke-width="0.8" stroke-dasharray="0,0"></path><path d="M 36.70454893491808 68.85363373284308 L 31.60688352699765 73.95129914076239" fill="none" stroke="#459ef2" stroke-width="3" stroke-dasharray="0,0"></path><path d="M 57.35963404254301 60.17544080319633 L 52.261968634623486 65.27310621111592" fill="none" stroke="#459ef2" stroke-width="3" stroke-dasharray="0,0"></path><path d="M 68.39311647300167 72.26710945050337 L 63.29545106508124 77.36477485842266" fill="none" stroke="#459ef2" stroke-width="3" stroke-dasharray="0,0"></path></svg>