<svg width="100" height="100" viewBox="0 0 100 100" xmlns="http://www.w3.org/2000/svg" stroke-linecap="round" stroke-linejoin="round"><path d="M 79.64731542987909 30.843870749681177 A 12.894256298757485 12.894256298757485 0 1 1 79.64730898275147 30.830976495531456" stroke="#ec6e4c" fill="#ec6e4c" stroke-width="0" stroke-dasharray="0,0"></path><path d="M 72.17298259608012 52.30535726032437 L 30.33029380339201 52.30535726032437 L 41.15026739694102 40.06530991139884 L 56.61035793884983 33.022379388372514 L 63.80444483754215 39.032468312870364 L 72.17298259608012 52.30535726032437" fill="#ffffff" stroke="#ffffff" stroke-width="0.8" stroke-dasharray="0,0"></path><path d="M 41.23264491612942 41.40300614758711 A 10.90235111273745 10.90235111273745 0 1 1 41.232639464954325 41.39210379829142" stroke="#ffffff" fill="#ffffff" stroke-width="0.8" stroke-dasharray="0,0"></path><path d="M 57.612484237112966 28.271707046514774 A 12.906043878415105 12.906043878415105 0 1 1 57.61247778409157 28.258801004787358" stroke="#ffffff" fill="#ffffff" stroke-width="0.8" stroke-dasharray="0,0"></path><path d="M 71.11515656662392 31.721756583788842 A 7.3107117290818655 7.3107117290818655 0 1 1 71.11515291126837 31.71444587327821" stroke="#ffffff" fill="#ffffff" stroke-width="0.8" stroke-dasharray="0,0"></path><path d="M 81.0508634290266 43.42747642737781 A 8.877880832946737 8.877880832946737 0 1 1 81.05085899008655 43.418598548024505" stroke="#ffffff" fill="#ffffff" stroke-width="0.8" stroke-dasharray="0,0"></path><path d="M 36.70454893491916 68.85363373284285 L 31.60688352699873 73.95129914076239" fill="none" stroke="#459ef2" stroke-width="4.800000000000001" stroke-dasharray="0,0"></path><path d="M 57.35963404254451 60.17544080319615 L 52.26196863462545 65.27310621111565" fill="none" stroke="#459ef2" stroke-width="4.800000000000001" stroke-dasharray="0,0"></path><path d="M 68.39311647300289 72.26710945050314 L 63.29545106508246 77.36477485842266" fill="none" stroke="#459ef2" stroke-width="4.800000000000001" stroke-dasharray="0,0"></path></svg>