<svg width="100" height="100" viewBox="0 0 100 100" xmlns="http://www.w3.org/2000/svg" stroke-linecap="round" stroke-linejoin="round"><path d="M 72.17298259607995 52.305357260324385 L 30.330293803391186 52.305357260324385 L 41.15026739694028 40.065309911398856 L 56.61035793884977 33.02237938837253 L 63.80444483754198 39.03246831287038 L 72.17298259607995 52.305357260324385" fill="#ffffff" stroke="#ffffff" stroke-width="0.8" stroke-dasharray="0,0"></path><path d="M 41.23264491612874 41.40300614758712 A 10.90235111273745 10.90235111273745 0 1 1 41.23263946495364 41.39210379829144" stroke="#ffffff" fill="#ffffff" stroke-width="0.8" stroke-dasharray="0,0"></path><path d="M 57.612484237112554 28.271707046514774 A 12.906043878415105 12.906043878415105 0 1 1 57.612477784091155 28.258801004787358" stroke="#ffffff" fill="#ffffff" stroke-width="0.8" stroke-dasharray="0,0"></path><path d="M 71.11515656662381 31.721756583788842 A 7.3107117290818655 7.3107117290818655 0 1 1 71.11515291126825 31.71444587327821" stroke="#ffffff" fill="#ffffff" stroke-width="0.8" stroke-dasharray="0,0"></path><path d="M 81.05086342902646 43.427476427377826 A 8.877880832946737 8.877880832946737 0 1 1 81.05085899008641 43.41859854802452" stroke="#ffffff" fill="#ffffff" stroke-width="0.8" stroke-dasharray="0,0"></path><path d="M 52.7030720360939 70.00000000000001 A 2.7030720360932428 2.7030720360932428 0 1 1 52.70307068455799 69.99729692841443" stroke="#ffffff" fill="none" stroke-width="1.05" stroke-dasharray="0,0"></path><path d="M 50.00000000000111 67.2969279639062 L 50.00000000000111 64.15982533752522 L 50.00000000000111 60.10974252561708" fill="none" stroke="#ffffff" stroke-width="1.05" stroke-dasharray="0,0"></path><path d="M 50.00000000000111 64.15982533752522 L 52.852958886842515 61.30686645068408" fill="none" stroke="#ffffff" stroke-width="1.05" stroke-dasharray="0,0"></path><path d="M 50.00000000000111 64.15982533752522 L 47.14704111316016 61.30686645068408" fill="none" stroke="#ffffff" stroke-width="1.05" stroke-dasharray="0,0"></path><path d="M 52.34092905151667 68.64846398195367 L 55.0577396202427 67.07991266876317 L 58.56521422278567 65.05487126280849" fill="none" stroke="#ffffff" stroke-width="1.05" stroke-dasharray="0,0"></path><path d="M 55.0577396202427 67.07991266876317 L 58.95495393562007 68.12416809729822" fill="none" stroke="#ffffff" stroke-width="1.05" stroke-dasharray="0,0"></path><path d="M 55.0577396202427 67.07991266876317 L 56.10199504877866 63.182698353385845" fill="none" stroke="#ffffff" stroke-width="1.05" stroke-dasharray="0,0"></path><path d="M 52.34092905151667 71.35153601804632 L 55.0577396202427 72.9200873312368 L 58.56521422278567 74.94512873719145" fill="none" stroke="#ffffff" stroke-width="1.05" stroke-dasharray="0,0"></path><path d="M 55.0577396202427 72.9200873312368 L 56.10199504877866 76.81730164661417" fill="none" stroke="#ffffff" stroke-width="1.05" stroke-dasharray="0,0"></path><path d="M 55.0577396202427 72.9200873312368 L 58.95495393562007 71.87583190270175" fill="none" stroke="#ffffff" stroke-width="1.05" stroke-dasharray="0,0"></path><path d="M 50.00000000000111 72.70307203609377 L 50.00000000000111 75.84017466247474 L 50.00000000000111 79.8902574743829" fill="none" stroke="#ffffff" stroke-width="1.05" stroke-dasharray="0,0"></path><path d="M 50.00000000000111 75.84017466247474 L 47.14704111316016 78.69313354931592" fill="none" stroke="#ffffff" stroke-width="1.05" stroke-dasharray="0,0"></path><path d="M 50.00000000000111 75.84017466247474 L 52.852958886842515 78.69313354931592" fill="none" stroke="#ffffff" stroke-width="1.05" stroke-dasharray="0,0"></path><path d="M 47.65907094848464 71.35153601804632 L 44.94226037975997 72.9200873312368 L 41.434785777217 74.94512873719145" fill="none" stroke="#ffffff" stroke-width="1.05" stroke-dasharray="0,0"></path><path d="M 44.94226037975997 72.9200873312368 L 41.045046064382376 71.87583190270175" fill="none" stroke="#ffffff" stroke-width="1.05" stroke-dasharray="0,0"></path><path d="M 44.94226037975997 72.9200873312368 L 43.898004951222646 76.81730164661417" fill="none" stroke="#ffffff" stroke-width="1.05" stroke-dasharray="0,0"></path><path d="M 47.65907094848464 68.64846398195367 L 44.94226037975997 67.07991266876317 L 41.434785777217 65.05487126280849" fill="none" stroke="#ffffff" stroke-width="1.05" stroke-dasharray="0,0"></path><path d="M 44.94226037975997 67.07991266876317 L 43.898004951222646 63.182698353385845" fill="none" stroke="#ffffff" stroke-width="1.05" stroke-dasharray="0,0"></path><path d="M 44.94226037975997 67.07991266876317 L 41.045046064382376 68.12416809729822" fill="none" stroke="#ffffff" stroke-width="1.05" stroke-dasharray="0,0"></path></svg>