<svg width="100" height="100" viewBox="0 0 100 100" xmlns="http://www.w3.org/2000/svg" stroke-linecap="round" stroke-linejoin="round"><path d="M 72.17298259607941 52.30535726032464 L 30.33029380339093 52.30535726032464 L 41.15026739694002 40.065309911399055 L 56.61035793884929 33.02237938837265 L 63.804444837540984 39.032468312870634 L 72.17298259607941 52.30535726032464" fill="#ffffff" stroke="#ffffff" stroke-width="0.8" stroke-dasharray="0,0"></path><path d="M 41.232644916128386 41.40300614758738 A 10.90235111273745 10.90235111273745 0 1 1 41.23263946495329 41.39210379829169" stroke="#ffffff" fill="#ffffff" stroke-width="0.8" stroke-dasharray="0,0"></path><path d="M 57.612484237112184 28.271707046514997 A 12.906043878415105 12.906043878415105 0 1 1 57.612477784090785 28.258801004787582" stroke="#ffffff" fill="#ffffff" stroke-width="0.8" stroke-dasharray="0,0"></path><path d="M 71.1151565666233 31.721756583789066 A 7.3107117290818655 7.3107117290818655 0 1 1 71.11515291126774 31.714445873278432" stroke="#ffffff" fill="#ffffff" stroke-width="0.8" stroke-dasharray="0,0"></path><path d="M 81.05086342902592 43.427476427378025 A 8.877880832946737 8.877880832946737 0 1 1 81.05085899008587 43.41859854802472" stroke="#ffffff" fill="#ffffff" stroke-width="0.8" stroke-dasharray="0,0"></path><path d="M 47.791093567195446 77.53428782815341 L 42.693428159275015 82.6319532360727" fill="none" stroke="#459ef2" stroke-width="3" stroke-dasharray="0,0"></path><path d="M 51.81636172640509 60.6087873062033 L 46.71869631848557 65.70645271412278" fill="none" stroke="#459ef2" stroke-width="3" stroke-dasharray="0,0"></path><path d="M 60.6866159359314 72.83565771731848 L 55.588950528011026 77.93332312523778" fill="none" stroke="#459ef2" stroke-width="3" stroke-dasharray="0,0"></path><path d="M 73.56144865831052 65.81516313895335 A 1.8921504252652699 1.8921504252652699 360 1 1 73.56144771223539 65.81327098884344" stroke="#ffffff" fill="none" stroke-width="1.05" stroke-dasharray="0,0"></path><path d="M 71.66929823304548 67.70731356421915 L 71.66929823304548 69.90328540268585 L 71.66929823304548 72.73834337102146" fill="none" stroke="#ffffff" stroke-width="1.05" stroke-dasharray="0,0"></path><path d="M 71.66929823304548 69.90328540268585 L 73.66636945383465 71.90035662347456" fill="none" stroke="#ffffff" stroke-width="1.05" stroke-dasharray="0,0"></path><path d="M 71.66929823304548 69.90328540268585 L 69.672227012257 71.90035662347456" fill="none" stroke="#ffffff" stroke-width="1.05" stroke-dasharray="0,0"></path><path d="M 73.30794856910637 66.76123835158582 L 75.20971596721478 67.85922427081927 L 77.66494818899486 69.27675325498755" fill="none" stroke="#ffffff" stroke-width="1.05" stroke-dasharray="0,0"></path><path d="M 75.20971596721478 67.85922427081927 L 77.93776598797893 67.12824547084473" fill="none" stroke="#ffffff" stroke-width="1.05" stroke-dasharray="0,0"></path><path d="M 75.20971596721478 67.85922427081927 L 75.94069476718977 70.58727429158346" fill="none" stroke="#ffffff" stroke-width="1.05" stroke-dasharray="0,0"></path><path d="M 73.30794856910637 64.86908792632096 L 75.20971596721478 63.77110200708776 L 77.66494818899486 62.35357302291954" fill="none" stroke="#ffffff" stroke-width="1.05" stroke-dasharray="0,0"></path><path d="M 75.20971596721478 63.77110200708776 L 75.94069476718977 61.04305198632364" fill="none" stroke="#ffffff" stroke-width="1.05" stroke-dasharray="0,0"></path><path d="M 75.20971596721478 63.77110200708776 L 77.93776598797893 64.50208080706227" fill="none" stroke="#ffffff" stroke-width="1.05" stroke-dasharray="0,0"></path><path d="M 71.66929823304548 63.923012713687854 L 71.66929823304548 61.72704087522124 L 71.66929823304548 58.891982906885644" fill="none" stroke="#ffffff" stroke-width="1.05" stroke-dasharray="0,0"></path><path d="M 71.66929823304548 61.72704087522124 L 69.672227012257 59.72996965443254" fill="none" stroke="#ffffff" stroke-width="1.05" stroke-dasharray="0,0"></path><path d="M 71.66929823304548 61.72704087522124 L 73.66636945383465 59.72996965443231" fill="none" stroke="#ffffff" stroke-width="1.05" stroke-dasharray="0,0"></path><path d="M 70.03064789698414 64.86908792632119 L 68.12888049887687 63.77110200708776 L 65.67364827709656 62.35357302291954" fill="none" stroke="#ffffff" stroke-width="1.05" stroke-dasharray="0,0"></path><path d="M 68.12888049887687 63.77110200708776 L 65.40083047811248 64.50208080706227" fill="none" stroke="#ffffff" stroke-width="1.05" stroke-dasharray="0,0"></path><path d="M 68.12888049887687 63.77110200708776 L 67.39790169890074 61.04305198632364" fill="none" stroke="#ffffff" stroke-width="1.05" stroke-dasharray="0,0"></path><path d="M 70.03064789698414 66.76123835158582 L 68.12888049887687 67.85922427081927 L 65.67364827709656 69.27675325498755" fill="none" stroke="#ffffff" stroke-width="1.05" stroke-dasharray="0,0"></path><path d="M 68.12888049887687 67.85922427081927 L 67.39790169890074 70.58727429158346" fill="none" stroke="#ffffff" stroke-width="1.05" stroke-dasharray="0,0"></path><path d="M 68.12888049887687 67.85922427081927 L 65.40083047811248 67.12824547084473" fill="none" stroke="#ffffff" stroke-width="1.05" stroke-dasharray="0,0"></path><path d="M 33.88907358389466 70.84451310227051 A 1.8921504252652699 1.8921504252652699 360 1 1 33.889072637819524 70.8426209521606" stroke="#ffffff" fill="none" stroke-width="1.05" stroke-dasharray="0,0"></path><path d="M 31.996923158629613 72.73666352753649 L 31.996923158629613 74.93263536600317 L 31.996923158629613 77.76769333433855" fill="none" stroke="#ffffff" stroke-width="1.05" stroke-dasharray="0,0"></path><path d="M 31.996923158629613 74.93263536600317 L 33.99399437941878 76.92970658679165" fill="none" stroke="#ffffff" stroke-width="1.05" stroke-dasharray="0,0"></path><path d="M 31.996923158629613 74.93263536600317 L 29.99985193784113 76.92970658679165" fill="none" stroke="#ffffff" stroke-width="1.05" stroke-dasharray="0,0"></path><path d="M 33.635573494690505 71.79058831490316 L 35.53734089279891 72.88857423413639 L 37.99257311457899 74.30610321830487" fill="none" stroke="#ffffff" stroke-width="1.05" stroke-dasharray="0,0"></path><path d="M 35.53734089279891 72.88857423413639 L 38.26539091356307 72.15759543416253" fill="none" stroke="#ffffff" stroke-width="1.05" stroke-dasharray="0,0"></path><path d="M 35.53734089279891 72.88857423413639 L 36.2683196927739 75.61662425490054" fill="none" stroke="#ffffff" stroke-width="1.05" stroke-dasharray="0,0"></path><path d="M 33.635573494690505 69.89843788963832 L 35.53734089279891 68.80045197040484 L 37.99257311457899 67.38292298623658" fill="none" stroke="#ffffff" stroke-width="1.05" stroke-dasharray="0,0"></path><path d="M 35.53734089279891 68.80045197040484 L 36.2683196927739 66.07240194964068" fill="none" stroke="#ffffff" stroke-width="1.05" stroke-dasharray="0,0"></path><path d="M 35.53734089279891 68.80045197040484 L 38.26539091356307 69.5314307703794" fill="none" stroke="#ffffff" stroke-width="1.05" stroke-dasharray="0,0"></path><path d="M 31.996923158629613 68.95236267700496 L 31.996923158629613 66.75639083853828 L 31.996923158629613 63.92133287020266" fill="none" stroke="#ffffff" stroke-width="1.05" stroke-dasharray="0,0"></path><path d="M 31.996923158629613 66.75639083853828 L 29.99985193784113 64.75931961774955" fill="none" stroke="#ffffff" stroke-width="1.05" stroke-dasharray="0,0"></path><path d="M 31.996923158629613 66.75639083853828 L 33.99399437941878 64.75931961774955" fill="none" stroke="#ffffff" stroke-width="1.05" stroke-dasharray="0,0"></path><path d="M 30.358272822568267 69.89843788963832 L 28.456505424461 68.80045197040484 L 26.001273202680693 67.38292298623658" fill="none" stroke="#ffffff" stroke-width="1.05" stroke-dasharray="0,0"></path><path d="M 28.456505424461 68.80045197040484 L 25.728455403696614 69.5314307703794" fill="none" stroke="#ffffff" stroke-width="1.05" stroke-dasharray="0,0"></path><path d="M 28.456505424461 68.80045197040484 L 27.72552662448487 66.07240194964068" fill="none" stroke="#ffffff" stroke-width="1.05" stroke-dasharray="0,0"></path><path d="M 30.358272822568267 71.79058831490293 L 28.456505424461 72.88857423413639 L 26.001273202680693 74.30610321830487" fill="none" stroke="#ffffff" stroke-width="1.05" stroke-dasharray="0,0"></path><path d="M 28.456505424461 72.88857423413639 L 27.72552662448487 75.61662425490054" fill="none" stroke="#ffffff" stroke-width="1.05" stroke-dasharray="0,0"></path><path d="M 28.456505424461 72.88857423413639 L 25.728455403696614 72.15759543416367" fill="none" stroke="#ffffff" stroke-width="1.05" stroke-dasharray="0,0"></path></svg>