<svg width="256" height="256" viewBox="0 0 256 256" xmlns="http://www.w3.org/2000/svg" stroke-linecap="round" stroke-linejoin="round"><path d="M 216.32000000000465 108.8000000000003 A 49.92 49.92 0 1 1 216.31997504000674 108.75008000832027" stroke="#000000" fill="#4b66ec" stroke-width="0" stroke-dasharray="0,0"></path><path d="M 194.94830206830403 197.12000000000032 L 61.05169793170296 197.12000000000032 L 95.6756134310586 157.95184848343868 L 145.14790316517 135.41447080975428 L 168.1689812409843 154.6467553681476 L 194.94830206830403 197.12000000000032" fill="#ffffff" stroke="#ffffff" stroke-width="1" stroke-dasharray="0,0"></path><path d="M 95.93922149246163 162.23247643924117 A 34.887523560759846 34.887523560759846 0 1 1 95.9392040487013 162.19758892149497" stroke="#ffffff" fill="#ffffff" stroke-width="1" stroke-dasharray="0,0"></path><path d="M 148.35470731961215 120.2123193158096 A 41.29934041092834 41.29934041092834 0 1 1 148.35468666994365 120.17101998228186" stroke="#ffffff" fill="#ffffff" stroke-width="1" stroke-dasharray="0,0"></path><path d="M 191.56325877404683 131.25247783508647 A 23.394277533061967 23.394277533061967 0 1 1 191.56324707690905 131.22908356145243" stroke="#ffffff" fill="#ffffff" stroke-width="1" stroke-dasharray="0,0"></path><path d="M 223.3575207337342 168.7107813345714 A 28.40921866542956 28.40921866542956 0 1 1 223.35750652912603 168.68237212064082" stroke="#ffffff" fill="#ffffff" stroke-width="1" stroke-dasharray="0,0"></path><path d="M 163.2850768954088 77.59895677061135 A 7.51214603011562 7.51214603011562 0 1 1 163.2850731393361 77.59144462583326" stroke="#ffffff" fill="none" stroke-width="4" stroke-dasharray="0,0"></path><path d="M 195.58275415635427 81.60349520817371 A 7.5158384098077695 7.5158384098077695 0 1 1 195.58275039843537 81.59597937101654" stroke="#ffffff" fill="none" stroke-width="4" stroke-dasharray="0,0"></path><path d="M 151.06170917404336 94.79491594367326 Q 168.72161606695423 102.78665456638095 187.33811619666704 97.38608787386067" stroke="#ffffff" fill="none" stroke-width="4" stroke-dasharray="0,0"></path><path d="M 155.0337086683434 78.66931318966869 A 0.41150827963695724 0.41150827963695724 0 1 1 155.03370846258926 78.66890168145763" stroke="#ffffff" fill="none" stroke-width="2" stroke-dasharray="0,0"></path><path d="M 187.23932569837157 82.21449500229234 A 0.41150827963695724 0.41150827963695724 0 1 1 187.23932549261744 82.21408349408128" stroke="#ffffff" fill="none" stroke-width="2" stroke-dasharray="0,0"></path></svg>