<svg width="100" height="100" viewBox="0 0 100 100" xmlns="http://www.w3.org/2000/svg" stroke-linecap="round" stroke-linejoin="round"><path d="M 89.99999999999983 50 A 39.99999999999992 39.99999999999992 0 1 1 89.9999800000015 49.96000000666665" stroke="#000000" fill="none" stroke-width="5" stroke-dasharray="0,0"></path><path d="M 50 43 L 50 66.99999999999989" fill="none" stroke="#000000" stroke-width="3" stroke-dasharray="0,0"></path><path d="M 54.99999999999997 66.99999999999989 A 4.9999999999999725 4.9999999999999725 0 1 1 54.999997500000184 66.99500000083322" stroke="#000000" fill="#000000" stroke-width="3" stroke-dasharray="0,0"></path><path d="M 32.20101012677662 30.201010126776737 A 1.9999999999999714 1.9999999999999714 0 1 1 32.201009126776704 30.199010127110068" stroke="#000000" fill="#000000" stroke-width="3" stroke-dasharray="0,0"></path><path d="M 41.284863893777555 24.131373089684033 A 1.9999999999999714 1.9999999999999714 0 1 1 41.284862893777635 24.129373090017364" stroke="#000000" fill="#000000" stroke-width="3" stroke-dasharray="0,0"></path><path d="M 51.99999999999997 22.000000000000128 A 1.9999999999999714 1.9999999999999714 0 1 1 51.99999900000005 21.99800000033346" stroke="#000000" fill="#000000" stroke-width="3" stroke-dasharray="0,0"></path><path d="M 62.71513610622239 24.13137308968409 A 1.9999999999999714 1.9999999999999714 0 1 1 62.71513510622247 24.12937309001742" stroke="#000000" fill="#000000" stroke-width="3" stroke-dasharray="0,0"></path><path d="M 71.7989898732232 30.201010126776737 A 1.9999999999999714 1.9999999999999714 0 1 1 71.7989888732233 30.199010127110068" stroke="#000000" fill="#000000" stroke-width="3" stroke-dasharray="0,0"></path></svg>