<svg width="100" height="100" viewBox="0 0 100 100" xmlns="http://www.w3.org/2000/svg" stroke-linecap="round" stroke-linejoin="round"><path d="M 72.17298259607901 52.305357260324634 L 30.33029380339076 52.305357260324634 L 41.15026739693985 40.06530991139905 L 56.61035793884889 33.02237938837266 L 63.80444483754104 39.03246831287063 L 72.17298259607901 52.305357260324634" fill="#ffffff" stroke="#ffffff" stroke-width="0.8" stroke-dasharray="0,0"></path><path d="M 41.232644916127974 41.40300614758737 A 10.90235111273745 10.90235111273745 0 1 1 41.232639464952875 41.392103798291686" stroke="#ffffff" fill="#ffffff" stroke-width="0.8" stroke-dasharray="0,0"></path><path d="M 57.6124842371119 28.271707046514997 A 12.906043878415105 12.906043878415105 0 1 1 57.6124777840905 28.258801004787582" stroke="#ffffff" fill="#ffffff" stroke-width="0.8" stroke-dasharray="0,0"></path><path d="M 71.1151565666229 31.721756583789073 A 7.3107117290818655 7.3107117290818655 0 1 1 71.11515291126734 31.71444587327844" stroke="#ffffff" fill="#ffffff" stroke-width="0.8" stroke-dasharray="0,0"></path><path d="M 81.05086342902555 43.42747642737802 A 8.877880832946737 8.877880832946737 0 1 1 81.0508589900855 43.41859854802471" stroke="#ffffff" fill="#ffffff" stroke-width="0.8" stroke-dasharray="0,0"></path><path d="M 26.159870338683504 68.85363373284305 L 21.062204930763073 73.95129914076236" fill="none" stroke="#459ef2" stroke-width="4.800000000000001" stroke-dasharray="0,0"></path><path d="M 46.81495544630894 60.17544080319636 L 41.717290038389365 65.27310621111583" fill="none" stroke="#459ef2" stroke-width="4.800000000000001" stroke-dasharray="0,0"></path><path d="M 75.72097829629394 66.50699690507122 L 70.623312888373 71.60466231299077" fill="none" stroke="#459ef2" stroke-width="4.800000000000001" stroke-dasharray="0,0"></path><path d="M 55.76302930079987 75.74279041044886 L 50.6653638928795 80.84045581836844" fill="none" stroke="#459ef2" stroke-width="4.800000000000001" stroke-dasharray="0,0"></path></svg>