<svg width="100" height="100" viewBox="0 0 100 100" xmlns="http://www.w3.org/2000/svg" stroke-linecap="round" stroke-linejoin="round"><path d="M 72.1729825960796 52.30535726032438 L 30.33029380339096 52.30535726032438 L 41.150267396939824 40.06530991139885 L 56.610357938849205 33.02237938837252 L 63.80444483754158 39.03246831287037 L 72.1729825960796 52.30535726032438" fill="#ffffff" stroke="#ffffff" stroke-width="0.8" stroke-dasharray="0,0"></path><path d="M 41.23264491612807 41.403006147587114 A 10.90235111273745 10.90235111273745 0 1 1 41.232639464952975 41.39210379829143" stroke="#ffffff" fill="#ffffff" stroke-width="0.8" stroke-dasharray="0,0"></path><path d="M 57.61248423711204 28.271707046514774 A 12.906043878415105 12.906043878415105 0 1 1 57.61247778409064 28.258801004787358" stroke="#ffffff" fill="#ffffff" stroke-width="0.8" stroke-dasharray="0,0"></path><path d="M 71.11515656662336 31.721756583788842 A 7.3107117290818655 7.3107117290818655 0 1 1 71.1151529112678 31.71444587327821" stroke="#ffffff" fill="#ffffff" stroke-width="0.8" stroke-dasharray="0,0"></path><path d="M 81.0508634290261 43.42747642737782 A 8.877880832946737 8.877880832946737 0 1 1 81.05085899008604 43.41859854802451" stroke="#ffffff" fill="#ffffff" stroke-width="0.8" stroke-dasharray="0,0"></path><path d="M 37.70307203609299 70.00000000000001 A 2.7030720360932428 2.7030720360932428 0 1 1 37.70307068455708 69.99729692841443" stroke="#ffffff" fill="none" stroke-width="1.05" stroke-dasharray="0,0"></path><path d="M 35.000000000000426 67.2969279639062 L 35.000000000000426 64.15982533752522 L 35.000000000000426 60.10974252561707" fill="none" stroke="#ffffff" stroke-width="1.05" stroke-dasharray="0,0"></path><path d="M 35.000000000000426 64.15982533752522 L 37.85295888684138 61.306866450684076" fill="none" stroke="#ffffff" stroke-width="1.05" stroke-dasharray="0,0"></path><path d="M 35.000000000000426 64.15982533752522 L 32.14704111315902 61.306866450684076" fill="none" stroke="#ffffff" stroke-width="1.05" stroke-dasharray="0,0"></path><path d="M 37.340929051515985 68.64846398195367 L 40.05773962024156 67.07991266876317 L 43.56521422278453 65.05487126280849" fill="none" stroke="#ffffff" stroke-width="1.05" stroke-dasharray="0,0"></path><path d="M 40.05773962024156 67.07991266876317 L 43.95495393561899 68.12416809729822" fill="none" stroke="#ffffff" stroke-width="1.05" stroke-dasharray="0,0"></path><path d="M 40.05773962024156 67.07991266876317 L 41.10199504877798 63.18269835338584" fill="none" stroke="#ffffff" stroke-width="1.05" stroke-dasharray="0,0"></path><path d="M 37.340929051515985 71.35153601804632 L 40.05773962024156 72.9200873312368 L 43.56521422278453 74.94512873719145" fill="none" stroke="#ffffff" stroke-width="1.05" stroke-dasharray="0,0"></path><path d="M 40.05773962024156 72.9200873312368 L 41.10199504877798 76.81730164661417" fill="none" stroke="#ffffff" stroke-width="1.05" stroke-dasharray="0,0"></path><path d="M 40.05773962024156 72.9200873312368 L 43.95495393561899 71.87583190270175" fill="none" stroke="#ffffff" stroke-width="1.05" stroke-dasharray="0,0"></path><path d="M 35.000000000000426 72.70307203609377 L 35.000000000000426 75.84017466247474 L 35.000000000000426 79.8902574743829" fill="none" stroke="#ffffff" stroke-width="1.05" stroke-dasharray="0,0"></path><path d="M 35.000000000000426 75.84017466247474 L 32.14704111315902 78.69313354931592" fill="none" stroke="#ffffff" stroke-width="1.05" stroke-dasharray="0,0"></path><path d="M 35.000000000000426 75.84017466247474 L 37.85295888684138 78.69313354931592" fill="none" stroke="#ffffff" stroke-width="1.05" stroke-dasharray="0,0"></path><path d="M 32.6590709484835 71.35153601804632 L 29.942260379759063 72.9200873312368 L 26.434785777216092 74.94512873719145" fill="none" stroke="#ffffff" stroke-width="1.05" stroke-dasharray="0,0"></path><path d="M 29.942260379759063 72.9200873312368 L 26.045046064381694 71.87583190270175" fill="none" stroke="#ffffff" stroke-width="1.05" stroke-dasharray="0,0"></path><path d="M 29.942260379759063 72.9200873312368 L 28.898004951221736 76.81730164661417" fill="none" stroke="#ffffff" stroke-width="1.05" stroke-dasharray="0,0"></path><path d="M 32.6590709484835 68.64846398195367 L 29.942260379759063 67.07991266876317 L 26.434785777216092 65.05487126280849" fill="none" stroke="#ffffff" stroke-width="1.05" stroke-dasharray="0,0"></path><path d="M 29.942260379759063 67.07991266876317 L 28.898004951221736 63.18269835338584" fill="none" stroke="#ffffff" stroke-width="1.05" stroke-dasharray="0,0"></path><path d="M 29.942260379759063 67.07991266876317 L 26.045046064381694 68.12416809729822" fill="none" stroke="#ffffff" stroke-width="1.05" stroke-dasharray="0,0"></path><path d="M 62.296927963906725 70.00000000000001 A 2.7030720360932428 2.7030720360932428 540 1 1 62.29692931544263 70.0027030715856" stroke="#ffffff" fill="none" stroke-width="1.05" stroke-dasharray="0,0"></path><path d="M 64.9999999999994 67.2969279639062 L 64.9999999999994 64.15982533752522 L 64.9999999999994 60.10974252561707" fill="none" stroke="#ffffff" stroke-width="1.05" stroke-dasharray="0,0"></path><path d="M 64.9999999999994 64.15982533752522 L 62.147041113158224 61.306866450684076" fill="none" stroke="#ffffff" stroke-width="1.05" stroke-dasharray="0,0"></path><path d="M 64.9999999999994 64.15982533752522 L 67.85295888684081 61.306866450684076" fill="none" stroke="#ffffff" stroke-width="1.05" stroke-dasharray="0,0"></path><path d="M 62.659070948483844 68.64846398195367 L 59.94226037975804 67.07991266876317 L 56.43478577721507 65.05487126280849" fill="none" stroke="#ffffff" stroke-width="1.05" stroke-dasharray="0,0"></path><path d="M 59.94226037975804 67.07991266876317 L 56.04504606438067 68.12416809729822" fill="none" stroke="#ffffff" stroke-width="1.05" stroke-dasharray="0,0"></path><path d="M 59.94226037975804 67.07991266876317 L 58.89800495122162 63.18269835338584" fill="none" stroke="#ffffff" stroke-width="1.05" stroke-dasharray="0,0"></path><path d="M 62.659070948483844 71.35153601804632 L 59.94226037975804 72.9200873312368 L 56.43478577721507 74.94512873719145" fill="none" stroke="#ffffff" stroke-width="1.05" stroke-dasharray="0,0"></path><path d="M 59.94226037975804 72.9200873312368 L 58.89800495122162 76.81730164661417" fill="none" stroke="#ffffff" stroke-width="1.05" stroke-dasharray="0,0"></path><path d="M 59.94226037975804 72.9200873312368 L 56.04504606438067 71.87583190270175" fill="none" stroke="#ffffff" stroke-width="1.05" stroke-dasharray="0,0"></path><path d="M 64.9999999999994 72.70307203609377 L 64.9999999999994 75.84017466247474 L 64.9999999999994 79.8902574743829" fill="none" stroke="#ffffff" stroke-width="1.05" stroke-dasharray="0,0"></path><path d="M 64.9999999999994 75.84017466247474 L 67.85295888684081 78.69313354931592" fill="none" stroke="#ffffff" stroke-width="1.05" stroke-dasharray="0,0"></path><path d="M 64.9999999999994 75.84017466247474 L 62.147041113158224 78.69313354931592" fill="none" stroke="#ffffff" stroke-width="1.05" stroke-dasharray="0,0"></path><path d="M 67.34092905151633 71.35153601804632 L 70.05773962024105 72.9200873312368 L 73.56521422278402 74.94512873719145" fill="none" stroke="#ffffff" stroke-width="1.05" stroke-dasharray="0,0"></path><path d="M 70.05773962024105 72.9200873312368 L 73.95495393561842 71.87583190270175" fill="none" stroke="#ffffff" stroke-width="1.05" stroke-dasharray="0,0"></path><path d="M 70.05773962024105 72.9200873312368 L 71.10199504877838 76.81730164661417" fill="none" stroke="#ffffff" stroke-width="1.05" stroke-dasharray="0,0"></path><path d="M 67.34092905151633 68.64846398195367 L 70.05773962024105 67.07991266876317 L 73.56521422278402 65.05487126280849" fill="none" stroke="#ffffff" stroke-width="1.05" stroke-dasharray="0,0"></path><path d="M 70.05773962024105 67.07991266876317 L 71.10199504877838 63.18269835338584" fill="none" stroke="#ffffff" stroke-width="1.05" stroke-dasharray="0,0"></path><path d="M 70.05773962024105 67.07991266876317 L 73.95495393561842 68.12416809729822" fill="none" stroke="#ffffff" stroke-width="1.05" stroke-dasharray="0,0"></path></svg>