<svg width="100" height="100" viewBox="0 0 100 100" xmlns="http://www.w3.org/2000/svg" stroke-linecap="round" stroke-linejoin="round"><path d="M 9.49999999999956 50.000000000000114 Q 49.999999999999154 90.50000000000009 90.49999999999875 50.00000000000006" stroke="#ffffff" fill="none" stroke-width="7" stroke-dasharray="0,0"></path><path d="M 9.49999999999956 50.000000000000114 Q 49.999999999999154 9.500000000000078 90.49999999999875 50.00000000000006" stroke="#ffffff" fill="none" stroke-width="7" stroke-dasharray="0,0"></path><path d="M 68.48558071853881 50.00000000000011 A 18.485580718539012 18.485580718539012 360 1 1 68.48557147574923 49.98151442236249" stroke="#ffffff" fill="none" stroke-width="4" stroke-dasharray="0,0"></path><path d="M 66.71701041334055 37.010016638569795 L 73.3240924924476 43.15344383493249 L 71.0058180787259 51.846972886389096 L 79.69934713018245 45.35580452796819 L 67.41249273745717 62.279207748137026" fill="none" stroke="#ffffff" stroke-width="8" stroke-dasharray="0,0"></path><path d="M 74.68763923187518 57.87448636206568 L 84.0443069590288 47.91659250771869" fill="none" stroke="#ffffff" stroke-width="6" stroke-dasharray="0,0"></path><path d="M 57.88176515821344 50.000000000000085 A 7.881765158213641 7.881765158213641 360 1 1 57.88176121733119 49.99211823615549" stroke="#ffffff" fill="#ffffff" stroke-width="2" stroke-dasharray="0,0"></path><path d="M 33.1126743023686 37.01001663856982 L 26.50559222326156 43.153443834932546 L 28.823866636983283 51.84697288638915 L 20.130337585526675 45.35580452796819 L 32.41719197825206 62.27920774813708" fill="none" stroke="#ffffff" stroke-width="8" stroke-dasharray="0,0"></path><path d="M 25.312360768124407 57.87448636206574 L 15.955693040970758 47.9165925077188" fill="none" stroke="#ffffff" stroke-width="6" stroke-dasharray="0,0"></path></svg>