<svg width="100" height="100" viewBox="0 0 100 100" xmlns="http://www.w3.org/2000/svg" stroke-linecap="round" stroke-linejoin="round"><path d="M 9.499999999999545 50.000000000000085 Q 49.99999999999915 90.50000000000006 90.49999999999875 50.00000000000003" stroke="#000000" fill="none" stroke-width="7" stroke-dasharray="0,0"></path><path d="M 9.499999999999545 50.000000000000085 Q 49.99999999999915 9.50000000000005 90.49999999999875 50.00000000000003" stroke="#000000" fill="none" stroke-width="7" stroke-dasharray="0,0"></path><path d="M 68.48558071853878 50.00000000000008 A 18.485580718539012 18.485580718539012 360 1 1 68.4855714757492 49.98151442236246" stroke="#000000" fill="none" stroke-width="4" stroke-dasharray="0,0"></path><path d="M 66.71701041334052 37.010016638569795 L 73.32409249244756 43.15344383493252 L 71.00581807872584 51.846972886389096 L 79.69934713018245 45.35580452796819 L 67.41249273745711 62.279207748137026" fill="none" stroke="#000000" stroke-width="8" stroke-dasharray="0,0"></path><path d="M 74.68763923187515 57.87448636206568 L 84.0443069590288 47.91659250771872" fill="none" stroke="#000000" stroke-width="6" stroke-dasharray="0,0"></path><path d="M 57.88176515821341 50.000000000000085 A 7.881765158213641 7.881765158213641 360 1 1 57.88176121733116 49.99211823615549" stroke="#000000" fill="#000000" stroke-width="2" stroke-dasharray="0,0"></path><path d="M 33.11267430236859 37.01001663856982 L 26.505592223261544 43.153443834932546 L 28.82386663698327 51.84697288638915 L 20.13033758552666 45.35580452796819 L 32.41719197825205 62.279207748137054" fill="none" stroke="#000000" stroke-width="8" stroke-dasharray="0,0"></path><path d="M 25.312360768124393 57.87448636206571 L 15.955693040970743 47.9165925077188" fill="none" stroke="#000000" stroke-width="6" stroke-dasharray="0,0"></path></svg>